<?xml version="1.0" encoding="utf-8"?>
<!-- Generator: Adobe Illustrator 27.5.0, SVG Export Plug-In . SVG Version: 6.00 Build 0)  -->
<svg version="1.1" id="Слой_1" xmlns="http://www.w3.org/2000/svg" xmlns:xlink="http://www.w3.org/1999/xlink" x="0px" y="0px"
	 viewBox="0 0 3200 2000" style="enable-background:new 0 0 3200 2000;" xml:space="preserve">
<rect style="fill:#FFFFFF;" width="3200" height="2000"/>
<g>
	<path style="fill:#EBF3FA;" d="M547.81,1762.54c0,0-272.062-123.594-146.24-543.577
		c60.392-201.582,242.755-206.396,461.882-437.173c135.213-142.402,48.225-577.621,714.216-546.152
		c830.508,39.243,1047.604,684.409,1051.192,713.775c12.438,101.96,65.178,164.337,122.75,222.881
		c17.545,17.841,35.539,35.317,52.97,53.456c2.14,2.213,4.269,4.453,6.386,6.693c21.824,23.105,42.58,47.465,60.24,75.09
		c58.516,91.528,83.137,218.98,0.576,456.248L547.81,1762.54z"/>
	<rect x="1114.999" y="812.271" style="fill:#B6D1F8;" width="349.138" height="946.006"/>
	<path style="fill:#DFEBFD;" d="M532.505,1155.354c37.616-85.943,184.576-35.409,184.576-35.409s79.242,172.041,108.539,180.226
		c29.297,8.186-39.027-160.319-39.027-160.319c58.677,3.03,195.502,95.923,195.502,95.923s-36.607,181.462-6.196,182.184
		c30.411,0.722,24.216-162.33,24.216-162.33c53.471,25.144,95.973,98.242,95.973,98.242
		c49.44,116.096-102.19,173.586-102.19,173.586s-11.33,63.161,16.998,141.774l0.002,0.002c0,0,6.838,14.755,12.421,38.933
		l-15.261-2.276c-0.636-4.278-1.42-8.438-2.374-12.464c0.004-0.029-0.002-0.05-0.019-0.072c-0.014-0.059-0.029-0.116-0.043-0.175
		c-0.693-2.514-1.695-6.093-2.958-10.461c-0.002-0.005-0.003-0.011-0.005-0.016c0.001-0.01-0.008-0.012-0.007-0.021
		c-3.3-9.822-5.445-17.034-6.711-22.199c-0.005-0.017-0.007-0.032-0.008-0.048c-9.696-30.733-24.253-71.065-36.507-80.897
		c0,0,2.043-2.124,4.311-6.512c-1.375,2.076-2.808,4.241-4.311,6.512c-34.472,52.079-166.474,41.925-237.016,16.143
		c-70.542-25.782-35.76-41.575,8.392-69.041c44.152-27.466,124.94-6.438,151.144-15.881s-7.298-27.792-56.367-31.297
		c-49.069-3.505-80.562,41.389-160.042,37.162c-79.479-4.228-117.198-160.537-117.198-160.537
		c51.605,24.864,153.083,9.484,159.598-8.617c6.515-18.103-137.435-37.669-158.99-46.606S494.888,1241.296,532.505,1155.354z"/>
	<path style="fill:#DFEBFD;" d="M2428.549,662.815c-38.648-88.302-189.642-36.381-189.642-36.381s-81.416,176.762-111.517,185.172
		c-30.102,8.41,40.099-164.719,40.099-164.719c-60.287,3.114-200.868,98.555-200.868,98.555s37.611,186.442,6.366,187.184
		c-31.244,0.742-24.88-166.784-24.88-166.784c-54.938,25.833-98.606,100.938-98.606,100.938
		c-50.796,119.282,104.995,178.35,104.995,178.35s11.64,64.895-17.465,145.664c0,0.001-0.002,0.003-0.002,0.003
		s-7.026,15.159-12.762,40.001l15.679-2.339c0.653-4.396,1.459-8.67,2.439-12.806c-0.004-0.03,0.003-0.052,0.021-0.074
		c0.014-0.061,0.029-0.119,0.043-0.18c0.713-2.583,1.742-6.261,3.039-10.748c0.002-0.005,0.004-0.011,0.006-0.017
		c-0.001-0.01,0.009-0.011,0.007-0.021c3.392-10.092,5.595-17.502,6.896-22.809c0.005-0.017,0.008-0.033,0.008-0.049
		c9.963-31.577,24.918-73.016,37.51-83.117c0,0-2.1-2.183-4.43-6.691c1.413,2.134,2.885,4.358,4.43,6.691
		c35.418,53.508,171.042,43.075,243.52,16.585c72.478-26.489,36.742-42.716-8.622-70.936s-128.369-6.615-155.292-16.316
		c-26.924-9.702,7.498-28.555,57.914-32.156s82.772,42.524,164.434,38.182c81.66-4.343,120.414-164.942,120.414-164.942
		c-53.021,25.547-157.284,9.745-163.979-8.854c-6.693-18.599,141.206-38.702,163.354-47.885
		C2433.803,803.13,2467.197,751.115,2428.549,662.815z"/>
	<g>
		<path style="fill:#82B378;" d="M665.746,1603.213c0,0-199.362,8.285-243.2,108.019c0,0-8.071,22.532,23.485,26.218
			c31.556,3.687,127.341-115.597,219.715-126.641V1603.213z"/>
		<path style="fill:#82B378;" d="M665.746,1595.089c0,0-109.563-98.644-193.146-64.006c-83.583,34.639,58.496,37.219,100.903,44.428
			c42.407,7.208,92.243,27.702,92.243,27.702V1595.089z"/>
		<path style="fill:#82B378;" d="M662.922,1618.594c0,0-99.85,33.769-82.908,87.761
			C596.957,1760.348,662.922,1618.594,662.922,1618.594z"/>
		<g>
			<path style="fill:#F99746;" d="M1455.969,1726.949L1455.969,1726.949c-2.128,18.309-16.445,32.217-33.201,32.255l-696.484,1.572
				c-48.523-5.641-83.141-53.98-76.929-107.423l4.358-37.49c6.598-56.758,54.16-98.295,105.694-92.305l674.647,168.691
				C1448.435,1695.846,1457.852,1710.756,1455.969,1726.949z"/>
			<path style="fill:#ED7D2B;" d="M771.732,1635.754l-5.63,48.432c-0.173,1.485-1.529,2.56-3.015,2.387l-0.925-0.107
				c-1.485-0.173-2.559-1.529-2.387-3.015l5.63-48.431c0.172-1.486,1.529-2.561,3.015-2.388l0.925,0.108
				C770.831,1632.912,771.905,1634.27,771.732,1635.754z"/>
			<path style="fill:#ED7D2B;" d="M814.986,1683.937l-5.63,48.431c-0.172,1.485-1.529,2.56-3.015,2.387l-0.925-0.107
				c-1.485-0.173-2.56-1.529-2.387-3.015l5.63-48.431c0.173-1.486,1.529-2.56,3.015-2.388l0.925,0.108
				C814.085,1681.094,815.159,1682.451,814.986,1683.937z"/>
			<path style="fill:#ED7D2B;" d="M951.919,1635.754l-5.63,48.432c-0.173,1.485-1.529,2.56-3.015,2.387l-0.925-0.107
				c-1.485-0.173-2.56-1.529-2.387-3.015l5.63-48.431c0.173-1.486,1.529-2.561,3.015-2.388l0.925,0.108
				C951.018,1632.912,952.091,1634.27,951.919,1635.754z"/>
			<path style="fill:#ED7D2B;" d="M970.761,1685.819l-5.63,48.431c-0.172,1.486-1.529,2.561-3.015,2.388l-0.925-0.107
				c-1.485-0.173-2.56-1.529-2.387-3.015l5.63-48.432c0.172-1.485,1.529-2.56,3.015-2.387l0.925,0.107
				C969.859,1682.978,970.934,1684.334,970.761,1685.819z"/>
			<path style="fill:#ED7D2B;" d="M1011.596,1621.734l-5.629,48.431c-0.173,1.485-1.529,2.56-3.015,2.388l-0.925-0.107
				c-1.485-0.173-2.56-1.529-2.387-3.016l5.63-48.431c0.173-1.485,1.529-2.56,3.015-2.387l0.925,0.107
				C1010.695,1618.893,1011.769,1620.249,1011.596,1621.734z"/>
			<path style="fill:#ED7D2B;" d="M1089.841,1639.962l-3.571,30.718c-0.14,1.203-1.238,2.072-2.44,1.933l-1.955-0.228
				c-1.202-0.14-2.072-1.237-1.932-2.44l3.571-30.718c0.14-1.203,1.238-2.072,2.44-1.933l1.954,0.228
				C1089.111,1637.661,1089.98,1638.76,1089.841,1639.962z"/>
			<path style="fill:#ED7D2B;" d="M1099.724,1684.814l-3.571,30.719c-0.14,1.202-1.238,2.071-2.44,1.932l-1.954-0.227
				c-1.202-0.141-2.072-1.238-1.932-2.44l3.571-30.719c0.14-1.202,1.238-2.071,2.44-1.932l1.954,0.227
				C1098.995,1682.514,1099.864,1683.612,1099.724,1684.814z"/>
			<path style="fill:#ED7D2B;" d="M1137.039,1638.288l-4.059,34.919c-0.148,1.277-1.315,2.2-2.591,2.052l-1.684-0.195
				c-1.277-0.148-2.2-1.315-2.052-2.592l4.059-34.919c0.149-1.277,1.315-2.201,2.592-2.053l1.683,0.196
				C1136.264,1635.845,1137.188,1637.011,1137.039,1638.288z"/>
			<path style="fill:#ED7D2B;" d="M1181.81,1678.121l-4.059,34.919c-0.148,1.277-1.315,2.2-2.592,2.052l-1.683-0.195
				c-1.277-0.148-2.2-1.314-2.052-2.592l4.059-34.919c0.148-1.277,1.315-2.2,2.592-2.052l1.683,0.195
				C1181.035,1675.678,1181.958,1676.844,1181.81,1678.121z"/>
			<path style="fill:#ED7D2B;" d="M1216.762,1661.019l-4.059,34.919c-0.148,1.277-1.314,2.2-2.592,2.053l-1.683-0.196
				c-1.277-0.148-2.2-1.314-2.052-2.592l4.059-34.919c0.148-1.277,1.314-2.2,2.592-2.052l1.683,0.195
				C1215.987,1658.575,1216.911,1659.742,1216.762,1661.019z"/>
			<path style="fill:#ED7D2B;" d="M1230.693,1708.056l-4.059,34.919c-0.148,1.277-1.314,2.2-2.592,2.052l-1.683-0.195
				c-1.277-0.148-2.2-1.314-2.052-2.592l4.059-34.919c0.148-1.277,1.315-2.2,2.592-2.052l1.683,0.195
				C1229.918,1705.612,1230.841,1706.778,1230.693,1708.056z"/>
			<path style="fill:#ED7D2B;" d="M1196.432,1727.485l-1.88,16.171c-0.105,0.902-0.929,1.555-1.831,1.449l-3.046-0.354
				c-0.902-0.105-1.555-0.93-1.45-1.831l1.88-16.171c0.105-0.902,0.929-1.555,1.831-1.449l3.045,0.354
				C1195.884,1725.76,1196.536,1726.583,1196.432,1727.485z"/>
			<path style="fill:#ED7D2B;" d="M1167.796,1649.023l-1.879,16.17c-0.105,0.902-0.929,1.555-1.831,1.449l-3.045-0.354
				c-0.902-0.105-1.555-0.929-1.45-1.831l1.88-16.171c0.105-0.902,0.929-1.555,1.831-1.449l3.045,0.354
				C1167.249,1647.297,1167.901,1648.121,1167.796,1649.023z"/>
			<path style="fill:#ED7D2B;" d="M1145.322,1703.893l-4.059,34.919c-0.148,1.277-1.315,2.2-2.592,2.052l-1.683-0.195
				c-1.277-0.148-2.2-1.314-2.052-2.592l4.059-34.919c0.148-1.277,1.315-2.2,2.591-2.052l1.684,0.195
				C1144.547,1701.449,1145.471,1702.615,1145.322,1703.893z"/>
			<path style="fill:#ED7D2B;" d="M1055.28,1705.993l-3.571,30.718c-0.14,1.203-1.238,2.072-2.44,1.933l-1.954-0.228
				c-1.203-0.14-2.072-1.237-1.932-2.439l3.571-30.719c0.14-1.203,1.238-2.072,2.44-1.933l1.954,0.228
				C1054.551,1703.692,1055.42,1704.791,1055.28,1705.993z"/>
			<path style="fill:#ED7D2B;" d="M740.06,1664.079l-7.872,67.723c-0.202,1.739-1.791,2.997-3.531,2.795l0,0
				c-1.74-0.202-2.997-1.791-2.795-3.53l7.872-67.723c0.203-1.74,1.792-2.998,3.531-2.796l0,0
				C739.005,1660.75,740.263,1662.339,740.06,1664.079z"/>
			<path style="fill:#ED7D2B;" d="M807.973,1580.333l-3.595,30.925c-0.141,1.212-1.248,2.088-2.46,1.947l-1.919-0.223
				c-1.212-0.142-2.088-1.248-1.948-2.46l3.595-30.925c0.141-1.212,1.248-2.088,2.46-1.947l1.919,0.223
				C807.237,1578.015,808.114,1579.121,807.973,1580.333z"/>
			<path style="fill:#ED7D2B;" d="M883.085,1580.333l-3.595,30.925c-0.141,1.212-1.247,2.088-2.46,1.947l-1.919-0.223
				c-1.212-0.142-2.088-1.248-1.948-2.46l3.595-30.925c0.141-1.212,1.247-2.088,2.459-1.947l1.919,0.223
				C882.35,1578.015,883.226,1579.121,883.085,1580.333z"/>
			<path style="fill:#ED7D2B;" d="M850.653,1630.487l-3.595,30.925c-0.141,1.212-1.248,2.088-2.46,1.947l-1.919-0.223
				c-1.212-0.142-2.088-1.248-1.947-2.46l3.595-30.925c0.141-1.212,1.247-2.088,2.46-1.947l1.919,0.224
				C849.917,1628.169,850.794,1629.275,850.653,1630.487z"/>
			<path style="fill:#ED7D2B;" d="M695.044,1580.333l-3.595,30.925c-0.141,1.212-1.248,2.088-2.46,1.947l-1.919-0.223
				c-1.212-0.142-2.088-1.248-1.947-2.46l3.595-30.925c0.141-1.212,1.247-2.088,2.46-1.947l1.919,0.223
				C694.308,1578.015,695.185,1579.121,695.044,1580.333z"/>
			<path style="fill:#ED7D2B;" d="M695.044,1654.48l-3.595,30.924c-0.141,1.212-1.248,2.089-2.46,1.947l-1.919-0.223
				c-1.212-0.141-2.088-1.248-1.947-2.46l3.595-30.925c0.141-1.211,1.247-2.088,2.46-1.947l1.919,0.224
				C694.308,1652.161,695.185,1653.268,695.044,1654.48z"/>
			<path style="fill:#ED7D2B;" d="M728.353,1597.221l-5.055,43.481c-0.164,1.413-1.454,2.436-2.868,2.271l-1.188-0.138
				c-1.413-0.164-2.435-1.455-2.271-2.868l5.054-43.481c0.164-1.413,1.455-2.436,2.868-2.271l1.188,0.138
				C727.495,1594.517,728.517,1595.808,728.353,1597.221z"/>
			<path style="fill:#ED7D2B;" d="M762.281,1543.106l-5.055,43.482c-0.164,1.413-1.455,2.435-2.868,2.271l-1.188-0.138
				c-1.413-0.165-2.435-1.455-2.271-2.868l5.055-43.482c0.164-1.413,1.455-2.435,2.868-2.271l1.188,0.138
				C761.423,1540.403,762.445,1541.693,762.281,1543.106z"/>
			<path style="fill:#ED7D2B;" d="M874.905,1676.259l-5.98,51.444c-0.177,1.527-1.573,2.632-3.101,2.455l-0.771-0.09
				c-1.528-0.178-2.632-1.573-2.455-3.102l5.98-51.443c0.178-1.528,1.573-2.633,3.101-2.455l0.771,0.09
				C873.978,1673.335,875.083,1674.73,874.905,1676.259z"/>
			<path style="fill:#ED7D2B;" d="M925.064,1594.758l-7.872,67.723c-0.203,1.739-1.792,2.997-3.531,2.795l0,0
				c-1.74-0.202-2.997-1.791-2.795-3.53l7.872-67.723c0.203-1.74,1.791-2.998,3.531-2.796l0,0
				C924.008,1591.429,925.266,1593.018,925.064,1594.758z"/>
		</g>
	</g>
	<ellipse style="fill:#C2DBFD;" cx="1289.568" cy="812.271" rx="174.569" ry="60.516"/>
	<g>
		<rect x="1554.064" y="632.661" style="fill:#F2C5A0;" width="349.139" height="1125.616"/>
		<ellipse style="fill:#F5D1B7;" cx="1728.634" cy="632.661" rx="174.569" ry="60.516"/>
	</g>
	<g>
		<rect x="2008.375" y="1093.141" style="fill:#D8E3B7;" width="287.464" height="665.136"/>
		<ellipse style="fill:#DCE9BF;" cx="2152.107" cy="1093.141" rx="143.732" ry="60.516"/>
	</g>
	<g>
		<path style="fill:#FFA412;" d="M2718.09,1383.671v313.395c0,33.807-27.404,61.211-61.211,61.211H2150.83
			c-33.807,0-61.222-27.404-61.222-61.211v-58.825c14.375-4.659,25.957-17.107,25.957-32.359c0-16.057-8.36-35.061-25.957-37.119
			v-181.727c5.475-1.458,10.685-4.516,14.579-8.747c8.258-8.962,6.974-23.928-0.52-33.653c11.234-13.55,28.188-22.175,47.162-22.175
			h506.049C2690.686,1322.46,2718.09,1349.864,2718.09,1383.671z"/>
		<path style="fill:#FFB93E;" d="M2467.059,1371.528v337.68c0,27.099-21.971,49.068-49.068,49.068h-328.382V1638.24
			c14.375-4.659,25.957-17.107,25.957-32.359c0-16.057-8.36-35.061-25.957-37.119v-37.059c5.669-0.551,11.286-2.346,16.547-5.118
			c16.251-8.574,29.015-26.507,29.015-46.245c0-23.234-22.357-40.464-45.562-42.177v-51.128c5.475-1.458,10.685-4.516,14.579-8.747
			c8.258-8.962,6.974-23.928-0.52-33.653c-0.928-1.203-1.947-2.325-3.059-3.345c-3.222-2.966-7.024-4.914-11.001-5.872v-12.958
			h328.382C2445.088,1322.46,2467.059,1344.431,2467.059,1371.528z"/>
		<g>
			<path style="fill:#FFA412;" d="M2282.254,1491.693c0,19.737-12.765,37.67-29.016,46.244c-6.423,3.385-13.376,5.312-20.309,5.312
				c-11.244,0-21.512-4.18-29.32-11.082c-0.021-0.021-0.031-0.03-0.051-0.051c-9.187-8.115-14.977-19.992-14.977-33.215
				c0-24.499,19.85-49.518,44.348-49.518C2257.418,1449.384,2282.254,1467.205,2282.254,1491.693z"/>
			<path style="opacity:0.5;fill:#FFB93E;" d="M2274.709,1500.053c0,15.578-9.186,29.861-21.471,37.885
				c-6.423,3.385-13.376,5.312-20.309,5.312c-11.244,0-21.512-4.18-29.32-11.082c-0.021-0.021-0.031-0.03-0.051-0.051
				c-6.199-6.82-9.981-15.884-9.981-25.823c0-21.206,17.199-42.881,38.405-42.881
				C2253.197,1463.412,2274.709,1478.848,2274.709,1500.053z"/>
		</g>
		<g>
			<path style="fill:#FFA412;" d="M2151.827,1412.607c-8.121-7.475-10.666-19.519-8.039-29.452c1.039-3.924,2.88-7.515,5.505-10.367
				c4.259-4.627,9.867-7.269,15.664-7.867c0.016-0.001,0.024-0.001,0.04-0.002c6.818-0.706,13.897,1.409,19.339,6.417
				c10.08,9.277,12.856,26.92,3.578,37C2178.641,1418.411,2161.903,1421.881,2151.827,1412.607z"/>
			<path style="opacity:0.5;fill:#FFB93E;" d="M2151.244,1406.337c-6.409-5.899-8.808-15.088-7.456-23.182
				c1.039-3.924,2.88-7.515,5.505-10.367c4.259-4.627,9.867-7.269,15.664-7.867c0.016-0.001,0.024-0.001,0.04-0.002
				c5.154,0.032,10.315,1.909,14.405,5.673c8.725,8.031,11.13,23.315,3.1,32.041
				C2174.467,1411.362,2159.97,1414.367,2151.244,1406.337z"/>
		</g>
		<g>
			<path style="fill:#FFA412;" d="M2370.215,1426.117c-8.933,10.273-23.691,13.831-36.029,10.939
				c-4.875-1.145-9.365-3.288-12.974-6.426c-5.853-5.088-9.305-11.91-10.245-19.036c-0.002-0.02-0.003-0.029-0.004-0.05
				c-1.108-8.381,1.252-17.183,7.236-24.064c11.086-12.751,32.738-16.79,45.489-5.704
				C2376.435,1392.858,2381.296,1413.372,2370.215,1426.117z"/>
			<path style="opacity:0.5;fill:#FFB93E;" d="M2362.505,1427.055c-7.05,8.108-18.294,11.385-28.319,10.002
				c-4.875-1.145-9.365-3.288-12.974-6.426c-5.853-5.088-9.305-11.91-10.245-19.036c-0.002-0.02-0.003-0.029-0.004-0.05
				c-0.14-6.354,1.993-12.783,6.491-17.957c9.596-11.037,28.356-14.535,39.394-4.939
				C2367.89,1398.25,2372.101,1416.018,2362.505,1427.055z"/>
		</g>
		<g>
			<path style="fill:#FFA412;" d="M2383.689,1587.27c-6.113,16.229-22.162,27.022-38.181,29.04
				c-6.329,0.794-12.644,0.226-18.344-1.922c-9.247-3.482-16.394-10.099-20.678-18.192c-0.011-0.023-0.016-0.035-0.026-0.058
				c-5.04-9.518-6.123-21.077-2.028-31.95c7.587-20.145,31.657-34.57,51.802-26.983
				C2376.37,1544.788,2391.272,1567.133,2383.689,1587.27z"/>
			<path style="opacity:0.5;fill:#FFB93E;" d="M2374.896,1591.808c-4.824,12.809-16.801,21.709-29.388,24.502
				c-6.329,0.794-12.644,0.226-18.344-1.922c-9.247-3.482-16.394-10.099-20.678-18.192c-0.011-0.023-0.016-0.035-0.026-0.058
				c-2.984-7.528-3.288-16.152-0.209-24.325c6.566-17.438,27.421-29.934,44.858-23.366
				C2368.556,1555.017,2381.464,1574.37,2374.896,1591.808z"/>
		</g>
		<g>
			<path style="fill:#FFA412;" d="M2322.27,1676.673c2.202,10.307-2.462,21.095-9.99,27.386c-2.977,2.483-6.392,4.266-10.012,5.039
				c-5.872,1.256-11.699,0.219-16.547-2.514c-0.014-0.009-0.02-0.013-0.033-0.021c-5.701-3.212-10.051-8.768-11.527-15.673
				c-2.733-12.792,4.84-28.071,17.632-30.806C2304.579,1657.352,2319.536,1663.886,2322.27,1676.673z"/>
			<path style="opacity:0.5;fill:#FFB93E;" d="M2319.263,1681.88c1.738,8.134-1.464,16.618-6.983,22.179
				c-2.977,2.483-6.392,4.266-10.012,5.039c-5.872,1.256-11.699,0.219-16.547-2.514c-0.014-0.009-0.02-0.013-0.033-0.021
				c-3.998-2.869-6.984-7.18-8.094-12.37c-2.366-11.073,4.196-24.311,15.27-26.677
				C2303.94,1665.147,2316.896,1670.807,2319.263,1681.88z"/>
		</g>
		<g>
			<path style="fill:#FFA412;" d="M2435.572,1446.45c6.419,6.587,7.992,16.723,5.357,24.869c-1.043,3.218-2.736,6.122-5.05,8.377
				c-3.753,3.657-8.538,5.602-13.389,5.838c-0.013,0-0.021,0-0.033-0.001c-5.705,0.28-11.5-1.801-15.801-6.213
				c-7.968-8.176-9.479-22.98-1.305-30.947C2413.524,1440.408,2427.608,1438.278,2435.572,1446.45z"/>
			<path style="opacity:0.5;fill:#FFB93E;" d="M2435.773,1451.693c5.066,5.199,6.646,12.953,5.156,19.626
				c-1.043,3.218-2.736,6.122-5.05,8.377c-3.753,3.657-8.538,5.602-13.389,5.838c-0.013,0-0.021,0-0.033-0.001
				c-4.287-0.26-8.497-2.054-11.729-5.371c-6.896-7.076-8.206-19.903-1.13-26.8
				C2416.679,1446.463,2428.877,1444.617,2435.773,1451.693z"/>
		</g>
		<g>
			<path style="fill:#FFA412;" d="M2171.876,1720.799c-17.279,1.481-33.937-8.348-42.662-21.931
				c-3.445-5.369-5.654-11.312-6.175-17.38c-0.844-9.845,2.045-19.146,7.501-26.501c0.017-0.02,0.024-0.029,0.041-0.049
				c6.415-8.65,16.378-14.611,27.954-15.604c21.447-1.838,44.84,13.661,46.679,35.108
				C2207.052,1695.881,2193.314,1718.961,2171.876,1720.799z"/>
			<path style="opacity:0.5;fill:#FFB93E;" d="M2163.991,1714.821c-13.638,1.169-26.832-5.801-34.777-15.953
				c-3.445-5.369-5.654-11.312-6.175-17.38c-0.844-9.845,2.045-19.146,7.501-26.501c0.017-0.02,0.024-0.029,0.041-0.049
				c5.506-5.938,13.156-9.93,21.858-10.676c18.564-1.592,38.83,11.839,40.422,30.403
				C2194.454,1693.239,2182.556,1713.229,2163.991,1714.821z"/>
		</g>
	</g>
	<g>
		<path style="fill:#FFFFFF;" d="M1790.331,1249.409c-55.097-83.243-77.122-263.139,6.12-318.235
			c83.243-55.097,240.231,35.47,295.328,118.713c55.097,83.242,32.28,195.389-50.963,250.485
			C1957.574,1355.469,1845.428,1332.652,1790.331,1249.409z"/>
		<path style="fill:#F99746;" d="M1853.827,1200.772c-30.774-46.494-18.029-109.133,28.465-139.907
			c46.494-30.773,109.133-18.029,139.907,28.465c30.773,46.495,18.029,109.134-28.465,139.907
			C1947.239,1260.012,1884.601,1247.268,1853.827,1200.772z"/>
	</g>
	<g>
		<path style="fill:#99C3FF;" d="M1697.91,369.26h-20.768v20.799h-3.763v-44.534h27.589v3.212h-23.826v17.311h20.768V369.26z"/>
		<path style="fill:#99C3FF;" d="M1727.609,390.059c-0.204-0.571-0.363-1.27-0.475-2.095c-0.112-0.826-0.188-1.667-0.229-2.523
			c-0.55,0.713-1.203,1.386-1.958,2.019c-0.754,0.632-1.601,1.183-2.538,1.652c-0.938,0.469-1.968,0.846-3.089,1.131
			c-1.122,0.285-2.336,0.428-3.641,0.428c-1.61,0-3.073-0.234-4.389-0.703c-1.314-0.469-2.437-1.127-3.364-1.973
			c-0.928-0.846-1.647-1.841-2.156-2.983c-0.51-1.142-0.765-2.385-0.765-3.731c0-1.61,0.346-3.063,1.04-4.358
			c0.692-1.294,1.692-2.396,2.997-3.303c1.305-0.907,2.891-1.601,4.756-2.08c1.866-0.479,3.961-0.718,6.285-0.718h6.791v-3.763
			c0-2.365-0.729-4.226-2.187-5.582c-1.458-1.355-3.584-2.034-6.378-2.034c-1.284,0-2.468,0.174-3.547,0.52
			c-1.082,0.347-2.015,0.826-2.8,1.437c-0.785,0.612-1.396,1.321-1.835,2.126c-0.438,0.806-0.658,1.667-0.658,2.584l-3.67-0.031
			c0-1.243,0.306-2.446,0.918-3.609c0.611-1.162,1.473-2.197,2.584-3.105c1.111-0.907,2.447-1.637,4.007-2.187
			c1.561-0.55,3.288-0.826,5.186-0.826c1.752,0,3.368,0.225,4.848,0.673c1.478,0.449,2.746,1.122,3.808,2.018
			c1.06,0.897,1.886,2.019,2.478,3.364c0.591,1.346,0.887,2.917,0.887,4.71v16.027c0,0.571,0.02,1.163,0.062,1.774
			c0.04,0.611,0.107,1.203,0.199,1.774c0.091,0.571,0.198,1.116,0.32,1.636c0.123,0.52,0.265,0.974,0.428,1.361v0.367H1727.609z
			 M1716.109,387.429c1.324,0,2.553-0.168,3.685-0.505c1.132-0.336,2.156-0.8,3.074-1.392c0.918-0.591,1.713-1.279,2.386-2.064
			c0.673-0.785,1.213-1.636,1.621-2.554v-7.28h-6.271c-1.876,0-3.554,0.168-5.031,0.505c-1.479,0.336-2.728,0.821-3.746,1.453
			c-1.021,0.633-1.801,1.402-2.341,2.309c-0.541,0.908-0.811,1.933-0.811,3.074c0,0.897,0.173,1.738,0.521,2.523
			c0.347,0.785,0.841,1.468,1.483,2.049c0.643,0.581,1.422,1.039,2.34,1.376C1713.938,387.261,1714.966,387.429,1716.109,387.429z"
			/>
		<path style="fill:#99C3FF;" d="M1745.96,348.492v8.473h6.853v2.998h-6.853v22.052c0,1.163,0.118,2.095,0.353,2.799
			c0.234,0.704,0.55,1.254,0.948,1.652c0.397,0.398,0.856,0.663,1.377,0.795c0.52,0.132,1.064,0.199,1.636,0.199
			c0.55,0,1.081-0.035,1.59-0.107c0.51-0.071,0.969-0.138,1.377-0.199l0.153,2.998c-0.449,0.163-1.035,0.29-1.759,0.383
			c-0.724,0.091-1.443,0.137-2.156,0.137c-1.041,0-2.004-0.137-2.891-0.413c-0.887-0.275-1.646-0.749-2.279-1.422
			c-0.632-0.673-1.127-1.564-1.483-2.677c-0.356-1.111-0.534-2.493-0.534-4.145v-22.052h-6.087v-2.998h6.087v-8.473H1745.96z"/>
		<path style="fill:#99C3FF;" d="M1780.218,381.648c0-0.673-0.117-1.346-0.353-2.018c-0.233-0.673-0.673-1.31-1.314-1.912
			c-0.642-0.601-1.54-1.162-2.691-1.682c-1.152-0.52-2.646-0.973-4.48-1.361c-1.836-0.387-3.473-0.836-4.91-1.346
			c-1.437-0.51-2.65-1.127-3.64-1.851c-0.989-0.724-1.738-1.585-2.248-2.584c-0.51-0.999-0.765-2.172-0.765-3.518
			c0-1.223,0.271-2.386,0.811-3.487c0.54-1.101,1.315-2.059,2.324-2.875c1.01-0.815,2.232-1.463,3.671-1.942
			c1.438-0.479,3.054-0.719,4.849-0.719c1.916,0,3.634,0.25,5.153,0.749c1.519,0.5,2.804,1.193,3.854,2.08
			c1.05,0.887,1.851,1.932,2.401,3.135c0.551,1.203,0.825,2.508,0.825,3.915h-3.67c0-0.856-0.188-1.692-0.565-2.508
			c-0.378-0.815-0.928-1.534-1.651-2.156c-0.725-0.622-1.622-1.126-2.692-1.514c-1.07-0.387-2.289-0.581-3.654-0.581
			c-1.428,0-2.646,0.174-3.656,0.52c-1.009,0.347-1.835,0.795-2.477,1.346c-0.643,0.551-1.112,1.167-1.408,1.851
			c-0.295,0.683-0.443,1.371-0.443,2.064c0,0.734,0.113,1.403,0.337,2.004c0.225,0.602,0.658,1.162,1.3,1.682
			c0.643,0.52,1.54,0.999,2.691,1.437c1.152,0.439,2.656,0.872,4.512,1.3c1.999,0.469,3.722,0.989,5.169,1.56
			c1.448,0.571,2.646,1.249,3.595,2.034c0.947,0.785,1.651,1.682,2.11,2.691s0.688,2.177,0.688,3.502
			c0,1.367-0.286,2.615-0.857,3.747c-0.57,1.132-1.387,2.1-2.446,2.905c-1.061,0.806-2.346,1.433-3.854,1.881
			c-1.509,0.448-3.191,0.673-5.046,0.673c-2.101,0-3.957-0.271-5.567-0.81c-1.61-0.54-2.967-1.27-4.068-2.188
			c-1.101-0.918-1.932-1.973-2.492-3.165c-0.561-1.193-0.841-2.432-0.841-3.716h3.67c0.081,1.306,0.418,2.391,1.009,3.257
			c0.592,0.867,1.326,1.56,2.203,2.08c0.876,0.52,1.85,0.892,2.921,1.117c1.07,0.224,2.126,0.336,3.166,0.336
			c1.386,0,2.609-0.164,3.669-0.489c1.061-0.326,1.953-0.765,2.678-1.315c0.724-0.551,1.269-1.183,1.636-1.897
			C1780.034,383.168,1780.218,382.423,1780.218,381.648z"/>
	</g>
	<g>
		<path style="fill:#99C3FF;" d="M1659.338,446.843h-37.754v-15.262h57.838v13.311l-36.034,67.018h-19.968L1659.338,446.843z"/>
		<path style="fill:#99C3FF;" d="M1686.883,501.237l10.672-12.738c6.081,5.508,12.048,8.721,19.164,8.721
			c8.263,0,13.426-4.016,13.426-11.361c0-6.885-5.853-10.902-14.229-10.902c-5.049,0-9.64,1.377-13.426,2.984l-10.214-6.771
			l2.295-39.591h49.346v15.492h-34.197l-0.918,13.886c3.213-0.803,6.082-1.377,10.557-1.377c15.607,0,28.116,7.574,28.116,25.935
			c0,16.984-12.05,27.771-30.526,27.771C1704.095,513.287,1694.686,508.697,1686.883,501.237z"/>
		<path style="fill:#99C3FF;" d="M1757.971,458.685c0-9.992,6.963-18.066,17.258-18.066c10.194,0,17.057,7.974,17.057,18.066
			c0,9.891-6.964,18.066-17.259,18.066C1764.833,476.751,1757.971,468.778,1757.971,458.685z M1816.608,441.426h12.011
			l-51.574,70.649h-12.011L1816.608,441.426z M1781.688,458.685c0-4.744-2.624-8.882-6.661-8.882c-4.239,0-6.459,4.037-6.459,8.882
			c0,4.744,2.624,8.881,6.661,8.881C1779.467,467.566,1781.688,463.429,1781.688,458.685z M1801.368,494.817
			c0-9.992,6.965-18.066,17.259-18.066c10.193,0,17.057,7.973,17.057,18.066c0,9.891-6.964,18.066-17.258,18.066
			C1808.231,512.883,1801.368,504.91,1801.368,494.817z M1825.087,494.817c0-4.744-2.624-8.881-6.661-8.881
			c-4.239,0-6.46,4.037-6.46,8.881c0,4.744,2.624,8.882,6.661,8.882C1822.866,503.699,1825.087,499.56,1825.087,494.817z"/>
	</g>
	<g>
		<path style="fill:#99C3FF;" d="M1191.878,546.201v18.138h-3.763v-44.534h15.171c2.446,0,4.603,0.327,6.469,0.979
			c1.865,0.653,3.43,1.565,4.695,2.738c1.264,1.172,2.217,2.574,2.86,4.205c0.642,1.631,0.963,3.426,0.963,5.383
			c0,2.06-0.321,3.9-0.963,5.521c-0.643,1.621-1.59,2.993-2.845,4.114c-1.254,1.122-2.819,1.978-4.695,2.569
			c-1.877,0.592-4.038,0.887-6.484,0.887H1191.878z M1191.878,543.021h11.409c1.978,0,3.681-0.25,5.108-0.749
			c1.426-0.5,2.589-1.193,3.487-2.081c0.897-0.887,1.56-1.931,1.988-3.135c0.428-1.203,0.643-2.498,0.643-3.884
			c0-1.366-0.215-2.666-0.643-3.9c-0.428-1.234-1.091-2.314-1.988-3.242c-0.897-0.928-2.061-1.662-3.487-2.203
			c-1.427-0.539-3.13-0.81-5.108-0.81h-11.409V543.021z"/>
		<path style="fill:#99C3FF;" d="M1241.122,534.365c-0.774-0.143-1.601-0.214-2.477-0.214c-1.243,0-2.365,0.184-3.365,0.551
			c-0.999,0.367-1.88,0.882-2.645,1.544c-0.766,0.663-1.408,1.449-1.927,2.356c-0.521,0.907-0.933,1.912-1.239,3.012v22.726h-3.64
			v-33.095h3.579l0.062,5.261c0.897-1.815,2.115-3.248,3.654-4.297c1.54-1.05,3.431-1.575,5.674-1.575
			c0.448,0,0.907,0.041,1.376,0.123c0.469,0.081,0.815,0.173,1.04,0.275L1241.122,534.365z"/>
		<path style="fill:#99C3FF;" d="M1244.272,547.303c0-2.406,0.352-4.629,1.055-6.668c0.704-2.039,1.697-3.798,2.982-5.276
			c1.285-1.478,2.834-2.635,4.649-3.472c1.814-0.835,3.833-1.253,6.056-1.253c2.264,0,4.308,0.418,6.133,1.253
			c1.825,0.837,3.38,1.994,4.665,3.472c1.284,1.479,2.273,3.238,2.966,5.276c0.694,2.039,1.04,4.262,1.04,6.668v1.009
			c0,2.406-0.346,4.629-1.04,6.668c-0.693,2.039-1.682,3.798-2.966,5.276c-1.285,1.478-2.835,2.631-4.649,3.456
			c-1.815,0.826-3.844,1.239-6.087,1.239c-2.243,0-4.272-0.413-6.087-1.239c-1.814-0.825-3.37-1.978-4.664-3.456
			c-1.295-1.478-2.294-3.237-2.998-5.276c-0.703-2.039-1.055-4.262-1.055-6.668V547.303z M1247.942,548.312
			c0,1.815,0.245,3.543,0.734,5.184c0.489,1.642,1.203,3.08,2.142,4.313c0.938,1.234,2.099,2.217,3.486,2.951
			c1.387,0.734,2.977,1.102,4.771,1.102c1.794,0,3.38-0.367,4.756-1.102c1.375-0.734,2.533-1.717,3.472-2.951
			c0.937-1.233,1.651-2.671,2.141-4.313c0.488-1.641,0.733-3.369,0.733-5.184v-1.009c0-1.774-0.245-3.481-0.733-5.123
			c-0.49-1.641-1.204-3.084-2.141-4.328c-0.939-1.244-2.106-2.238-3.502-2.983c-1.397-0.744-2.992-1.117-4.787-1.117
			c-1.773,0-3.349,0.373-4.726,1.117c-1.376,0.745-2.533,1.739-3.471,2.983c-0.939,1.244-1.653,2.687-2.142,4.328
			c-0.49,1.642-0.734,3.349-0.734,5.123V548.312z"/>
		<path style="fill:#99C3FF;" d="M1287.063,522.773v8.472h6.852v2.998h-6.852v22.053c0,1.162,0.118,2.095,0.352,2.799
			c0.235,0.703,0.55,1.254,0.949,1.652c0.397,0.398,0.856,0.663,1.376,0.795c0.52,0.132,1.064,0.198,1.636,0.198
			c0.55,0,1.081-0.035,1.59-0.107c0.51-0.071,0.969-0.138,1.377-0.199l0.153,2.998c-0.449,0.163-1.036,0.29-1.759,0.383
			c-0.724,0.092-1.443,0.137-2.157,0.137c-1.04,0-2.003-0.137-2.89-0.413c-0.887-0.275-1.647-0.749-2.279-1.422
			c-0.632-0.672-1.127-1.564-1.483-2.676c-0.356-1.111-0.535-2.493-0.535-4.145v-22.053h-6.086v-2.998h6.086v-8.472H1287.063z"/>
		<path style="fill:#99C3FF;" d="M1314.315,564.951c-2.161,0-4.15-0.402-5.964-1.207c-1.814-0.806-3.379-1.927-4.694-3.365
			c-1.316-1.437-2.341-3.145-3.074-5.123c-0.735-1.978-1.101-4.149-1.101-6.515v-1.315c0-2.549,0.382-4.858,1.146-6.928
			c0.766-2.069,1.8-3.833,3.105-5.291c1.305-1.458,2.808-2.586,4.511-3.38c1.702-0.795,3.502-1.193,5.398-1.193
			c2.1,0,3.966,0.377,5.598,1.131c1.63,0.755,3.003,1.805,4.113,3.15c1.112,1.346,1.953,2.947,2.524,4.802
			c0.57,1.856,0.856,3.884,0.856,6.086v2.233h-23.613v0.703c0,1.815,0.276,3.523,0.826,5.123c0.55,1.601,1.326,2.993,2.325,4.175
			c0.999,1.183,2.192,2.116,3.578,2.798c1.387,0.684,2.925,1.025,4.619,1.025c1.958,0,3.685-0.357,5.184-1.071
			c1.5-0.713,2.86-1.855,4.083-3.426l2.294,1.744c-0.55,0.795-1.188,1.55-1.912,2.264c-0.725,0.713-1.565,1.335-2.524,1.865
			c-0.958,0.531-2.04,0.949-3.242,1.254C1317.15,564.798,1315.805,564.951,1314.315,564.951z M1313.643,533.752
			c-1.387,0-2.671,0.265-3.854,0.796c-1.183,0.53-2.228,1.285-3.135,2.264c-0.908,0.978-1.651,2.156-2.233,3.533
			c-0.581,1.376-0.974,2.901-1.178,4.573h19.851v-0.398c-0.042-1.387-0.266-2.727-0.673-4.022c-0.408-1.294-1.005-2.441-1.79-3.441
			c-0.784-0.999-1.758-1.8-2.921-2.401C1316.549,534.054,1315.192,533.752,1313.643,533.752z"/>
		<path style="fill:#99C3FF;" d="M1333.646,521.671c0-0.692,0.224-1.279,0.673-1.759c0.448-0.479,1.06-0.719,1.834-0.719
			c0.775,0,1.392,0.24,1.851,0.719c0.459,0.48,0.688,1.066,0.688,1.759c0,0.694-0.229,1.274-0.688,1.743
			c-0.458,0.47-1.075,0.704-1.851,0.704c-0.774,0-1.387-0.234-1.834-0.704C1333.87,522.945,1333.646,522.365,1333.646,521.671z
			 M1337.958,564.339h-3.67v-33.095h3.67V564.339z"/>
		<path style="fill:#99C3FF;" d="M1351.386,531.245l0.123,5.659c0.57-0.938,1.228-1.794,1.972-2.569
			c0.745-0.775,1.575-1.438,2.493-1.988c0.918-0.551,1.907-0.974,2.967-1.269c1.06-0.295,2.182-0.443,3.364-0.443
			c1.652,0,3.13,0.224,4.435,0.673c1.305,0.448,2.411,1.162,3.319,2.141c0.907,0.978,1.601,2.238,2.079,3.777
			c0.479,1.54,0.719,3.4,0.719,5.582v21.533h-3.64v-21.564c0-1.713-0.183-3.14-0.55-4.282c-0.368-1.142-0.887-2.06-1.56-2.753
			c-0.673-0.693-1.495-1.188-2.462-1.483c-0.969-0.296-2.045-0.444-3.228-0.444c-1.305,0-2.487,0.219-3.547,0.658
			c-1.062,0.439-1.999,1.025-2.815,1.759c-0.815,0.734-1.519,1.575-2.11,2.523c-0.591,0.948-1.06,1.922-1.406,2.921v22.665h-3.64
			v-33.095H1351.386z"/>
	</g>
	<g>
		<path style="fill:#99C3FF;" d="M1163.821,678.777l27.145-22.252c10.135-8.388,14.097-12.815,14.097-19.572
			c0-6.873-4.544-10.601-10.952-10.601c-6.29,0-10.601,3.495-16.659,10.951l-12.582-10.136
			c8.039-10.951,15.844-16.892,30.407-16.892c16.892,0,28.075,9.902,28.075,25.396c0,13.63-6.99,20.387-21.436,31.571
			l-13.281,10.252h35.533v15.495h-60.348V678.777z"/>
		<path style="fill:#99C3FF;" d="M1236.982,652.215c0-23.65,14.679-42.172,36.348-42.172c21.553,0,36.115,18.289,36.115,42.172
			c0,23.649-14.562,42.173-36.348,42.173C1251.311,694.388,1236.982,676.097,1236.982,652.215z M1291.038,652.215
			c0-14.796-7.223-25.979-17.941-25.979s-17.708,10.835-17.708,25.979c0,14.912,7.106,25.979,17.941,25.979
			S1291.038,667.243,1291.038,652.215z"/>
		<path style="fill:#99C3FF;" d="M1319.438,639.785c0-9.991,6.964-18.065,17.259-18.065c10.193,0,17.057,7.973,17.057,18.065
			c0,9.891-6.964,18.066-17.258,18.066C1326.3,657.852,1319.438,649.878,1319.438,639.785z M1378.077,622.527h12.01l-51.574,70.649
			h-12.01L1378.077,622.527z M1343.156,639.785c0-4.743-2.624-8.882-6.661-8.882c-4.239,0-6.459,4.037-6.459,8.882
			c0,4.744,2.624,8.882,6.661,8.882C1340.936,648.667,1343.156,644.529,1343.156,639.785z M1362.837,675.917
			c0-9.992,6.963-18.066,17.258-18.066c10.194,0,17.057,7.973,17.057,18.066c0,9.891-6.965,18.066-17.259,18.066
			C1369.7,693.984,1362.837,686.01,1362.837,675.917z M1386.555,675.917c0-4.743-2.624-8.882-6.661-8.882
			c-4.239,0-6.459,4.037-6.459,8.882c0,4.744,2.624,8.881,6.662,8.881C1384.334,684.799,1386.555,680.662,1386.555,675.917z"/>
	</g>
	<g>
		<path style="fill:#99C3FF;" d="M2101.092,855.237c-0.245,2.263-0.775,4.293-1.591,6.086c-0.815,1.795-1.911,3.315-3.288,4.558
			c-1.377,1.245-3.027,2.197-4.955,2.86c-1.927,0.662-4.113,0.994-6.561,0.994c-2.528,0-4.822-0.48-6.882-1.438
			c-2.06-0.958-3.823-2.32-5.292-4.083c-1.468-1.764-2.6-3.879-3.395-6.347c-0.795-2.468-1.192-5.2-1.192-8.198v-5.597
			c0-2.997,0.397-5.735,1.192-8.212c0.795-2.477,1.932-4.593,3.41-6.347c1.479-1.754,3.268-3.115,5.367-4.083
			c2.101-0.969,4.456-1.453,7.066-1.453c2.365,0,4.496,0.326,6.393,0.978c1.896,0.653,3.521,1.606,4.879,2.86
			c1.355,1.254,2.446,2.783,3.272,4.588c0.826,1.804,1.35,3.849,1.575,6.132h-3.793c-0.225-1.794-0.633-3.399-1.224-4.817
			c-0.592-1.417-1.392-2.605-2.4-3.563c-1.009-0.959-2.233-1.692-3.671-2.202c-1.438-0.509-3.115-0.765-5.031-0.765
			c-2.08,0-3.936,0.403-5.566,1.208c-1.632,0.806-3.019,1.943-4.16,3.411c-1.143,1.468-2.014,3.238-2.615,5.307
			c-0.602,2.069-0.902,4.369-0.902,6.897v5.658c0,2.447,0.286,4.706,0.856,6.774c0.571,2.071,1.407,3.855,2.508,5.354
			c1.102,1.499,2.458,2.666,4.068,3.502s3.457,1.254,5.536,1.254c3.936,0,6.901-0.943,8.9-2.829
			c1.999-1.886,3.232-4.715,3.701-8.488H2101.092z"/>
		<path style="fill:#99C3FF;" d="M2130.271,869.123c-0.204-0.57-0.363-1.269-0.475-2.095c-0.112-0.826-0.188-1.667-0.229-2.524
			c-0.55,0.714-1.203,1.387-1.958,2.018c-0.754,0.632-1.601,1.184-2.538,1.652c-0.938,0.469-1.968,0.846-3.089,1.132
			c-1.122,0.285-2.336,0.428-3.641,0.428c-1.61,0-3.073-0.235-4.389-0.704c-1.314-0.469-2.437-1.126-3.364-1.972
			s-1.647-1.841-2.156-2.982c-0.51-1.142-0.765-2.386-0.765-3.732c0-1.611,0.347-3.064,1.04-4.358
			c0.692-1.295,1.692-2.396,2.997-3.304s2.891-1.6,4.756-2.08c1.866-0.479,3.961-0.718,6.285-0.718h6.791v-3.762
			c0-2.365-0.729-4.226-2.187-5.583c-1.458-1.356-3.584-2.034-6.378-2.034c-1.284,0-2.468,0.174-3.547,0.521
			c-1.081,0.347-2.015,0.825-2.8,1.438c-0.786,0.612-1.396,1.32-1.835,2.125c-0.438,0.806-0.658,1.667-0.658,2.584l-3.67-0.031
			c0-1.243,0.306-2.447,0.918-3.609c0.611-1.162,1.473-2.196,2.584-3.104c1.111-0.907,2.447-1.637,4.007-2.187
			c1.561-0.551,3.288-0.825,5.185-0.825c1.753,0,3.369,0.224,4.849,0.673c1.478,0.448,2.746,1.122,3.808,2.019
			c1.06,0.896,1.886,2.018,2.478,3.364c0.591,1.346,0.887,2.917,0.887,4.71v16.027c0,0.572,0.02,1.163,0.062,1.775
			c0.04,0.611,0.107,1.204,0.199,1.774c0.091,0.571,0.198,1.116,0.32,1.637c0.123,0.519,0.265,0.974,0.429,1.36v0.368H2130.271z
			 M2118.771,866.493c1.324,0,2.553-0.169,3.685-0.505c1.132-0.336,2.157-0.8,3.074-1.392c0.918-0.591,1.713-1.28,2.386-2.064
			c0.673-0.785,1.213-1.637,1.621-2.555v-7.279h-6.27c-1.877,0-3.555,0.167-5.032,0.504c-1.479,0.337-2.728,0.822-3.746,1.453
			c-1.021,0.633-1.801,1.403-2.341,2.31c-0.541,0.908-0.811,1.933-0.811,3.074c0,0.896,0.173,1.738,0.521,2.522
			c0.347,0.785,0.841,1.468,1.483,2.049c0.643,0.582,1.422,1.041,2.34,1.377C2116.6,866.324,2117.628,866.493,2118.771,866.493z"/>
		<path style="fill:#99C3FF;" d="M2158.227,839.149c-0.774-0.144-1.601-0.215-2.478-0.215c-1.243,0-2.364,0.184-3.364,0.551
			c-0.999,0.366-1.881,0.881-2.645,1.544c-0.766,0.663-1.408,1.448-1.928,2.355c-0.521,0.908-0.933,1.912-1.238,3.012v22.726h-3.64
			v-33.095h3.578l0.062,5.262c0.896-1.815,2.114-3.247,3.654-4.297c1.54-1.05,3.431-1.575,5.674-1.575
			c0.448,0,0.906,0.041,1.377,0.122c0.469,0.082,0.814,0.173,1.04,0.275L2158.227,839.149z"/>
		<path style="fill:#99C3FF;" d="M2190.648,852.913c0,2.487-0.28,4.761-0.842,6.82c-0.561,2.06-1.381,3.829-2.462,5.307
			c-1.081,1.479-2.406,2.63-3.977,3.457c-1.569,0.825-3.354,1.239-5.353,1.239c-2.426,0-4.501-0.459-6.224-1.377
			c-1.725-0.917-3.135-2.172-4.237-3.762l-0.152,4.527h-3.426v-46.98h3.641v18.689c1.101-1.713,2.497-3.043,4.189-3.992
			c1.692-0.949,3.742-1.422,6.147-1.422c2.019,0,3.813,0.397,5.384,1.192c1.57,0.795,2.9,1.927,3.991,3.395
			c1.091,1.468,1.917,3.237,2.478,5.307c0.562,2.07,0.842,4.389,0.842,6.958V852.913z M2186.977,852.269
			c0-1.916-0.183-3.71-0.55-5.383c-0.366-1.672-0.943-3.119-1.728-4.343c-0.785-1.224-1.79-2.187-3.014-2.891
			c-1.223-0.704-2.691-1.056-4.404-1.056c-1.386,0-2.609,0.189-3.67,0.566c-1.061,0.378-1.979,0.882-2.753,1.514
			c-0.775,0.632-1.427,1.357-1.958,2.172c-0.529,0.815-0.958,1.663-1.283,2.538v14.926c0.387,0.877,0.871,1.698,1.452,2.462
			c0.581,0.766,1.27,1.429,2.065,1.989c0.795,0.561,1.707,1,2.736,1.315c1.03,0.316,2.188,0.474,3.473,0.474
			c1.65,0,3.084-0.346,4.297-1.04c1.213-0.692,2.217-1.651,3.013-2.874c0.795-1.224,1.381-2.666,1.758-4.328
			c0.378-1.663,0.565-3.461,0.565-5.398V852.269z"/>
		<path style="fill:#99C3FF;" d="M2218.543,860.712c0-0.673-0.117-1.346-0.352-2.019c-0.234-0.673-0.674-1.31-1.315-1.912
			c-0.642-0.602-1.54-1.162-2.691-1.683c-1.152-0.519-2.646-0.973-4.48-1.361c-1.835-0.387-3.472-0.835-4.909-1.346
			c-1.438-0.51-2.65-1.126-3.641-1.85c-0.989-0.724-1.738-1.586-2.248-2.584c-0.509-1-0.764-2.172-0.764-3.518
			c0-1.224,0.27-2.386,0.811-3.487c0.539-1.102,1.314-2.06,2.324-2.875c1.009-0.815,2.232-1.463,3.671-1.942
			c1.437-0.479,3.053-0.718,4.848-0.718c1.916,0,3.635,0.249,5.153,0.749c1.519,0.5,2.804,1.192,3.854,2.08
			c1.051,0.887,1.852,1.932,2.401,3.135c0.551,1.203,0.825,2.508,0.825,3.915h-3.67c0-0.856-0.188-1.692-0.565-2.508
			c-0.377-0.815-0.928-1.533-1.651-2.157c-0.725-0.621-1.621-1.126-2.692-1.513c-1.07-0.387-2.289-0.582-3.654-0.582
			c-1.428,0-2.646,0.173-3.655,0.52c-1.01,0.347-1.836,0.795-2.478,1.346c-0.643,0.551-1.112,1.168-1.407,1.851
			c-0.296,0.684-0.443,1.372-0.443,2.065c0,0.733,0.111,1.402,0.336,2.003c0.225,0.602,0.658,1.162,1.301,1.682
			c0.642,0.52,1.539,0.999,2.691,1.438c1.151,0.439,2.656,0.873,4.511,1.3c1.999,0.469,3.722,0.989,5.169,1.56
			c1.448,0.572,2.646,1.25,3.595,2.034c0.948,0.786,1.651,1.682,2.11,2.691c0.459,1.009,0.688,2.177,0.688,3.502
			c0,1.366-0.286,2.615-0.857,3.747c-0.57,1.132-1.386,2.101-2.446,2.906c-1.061,0.806-2.345,1.433-3.854,1.882
			c-1.51,0.448-3.191,0.673-5.047,0.673c-2.1,0-3.957-0.271-5.567-0.811c-1.61-0.541-2.967-1.27-4.067-2.187
			c-1.102-0.918-1.933-1.973-2.493-3.166c-0.561-1.192-0.841-2.431-0.841-3.716h3.67c0.082,1.306,0.418,2.392,1.01,3.257
			c0.591,0.867,1.326,1.561,2.202,2.081c0.876,0.52,1.851,0.892,2.921,1.116c1.07,0.225,2.126,0.336,3.166,0.336
			c1.387,0,2.609-0.163,3.67-0.489c1.06-0.326,1.952-0.766,2.677-1.316c0.724-0.55,1.269-1.182,1.636-1.896
			C2218.359,862.231,2218.543,861.486,2218.543,860.712z"/>
	</g>
	<g>
		<path style="fill:#99C3FF;" d="M2068.805,974.021l11.33-13.523c6.457,5.848,12.793,9.26,20.348,9.26
			c8.773,0,14.255-4.265,14.255-12.063c0-7.31-6.214-11.574-15.108-11.574c-5.36,0-10.234,1.462-14.254,3.167l-10.845-7.189
			l2.437-42.035h52.392v16.449h-36.309l-0.975,14.743c3.411-0.853,6.458-1.462,11.209-1.462c16.57,0,29.852,8.041,29.852,27.536
			c0,18.032-12.794,29.485-32.411,29.485C2087.079,986.815,2077.09,981.941,2068.805,974.021z"/>
		<path style="fill:#99C3FF;" d="M2143.633,932.213c0-9.992,6.963-18.066,17.258-18.066c10.194,0,17.058,7.974,17.058,18.066
			c0,9.891-6.965,18.066-17.26,18.066C2150.496,950.279,2143.633,942.306,2143.633,932.213z M2202.271,914.954h12.011
			l-51.575,70.649h-12.011L2202.271,914.954z M2167.35,932.213c0-4.744-2.623-8.882-6.661-8.882c-4.238,0-6.459,4.037-6.459,8.882
			c0,4.743,2.624,8.881,6.661,8.881C2165.13,941.094,2167.35,936.956,2167.35,932.213z M2187.03,968.344
			c0-9.991,6.965-18.065,17.259-18.065c10.193,0,17.057,7.973,17.057,18.065c0,9.891-6.963,18.067-17.258,18.067
			C2193.894,986.411,2187.03,978.437,2187.03,968.344z M2210.749,968.344c0-4.743-2.624-8.881-6.661-8.881
			c-4.239,0-6.459,4.037-6.459,8.881c0,4.744,2.623,8.882,6.66,8.882C2208.529,977.226,2210.749,973.088,2210.749,968.344z"/>
	</g>
	<g>
		<path style="fill:#2E3552;" d="M2707.643,1131.913c-26.149,60.853-70.888,131.076-132.146,152.6
			c-4.53,1.592-9.345,2.253-14.121,1.764c-8.714-0.894-16.977-3.629-22.792-7.946c-7.993-5.898-11.409-14.766-5.218-25.921
			c32.745-58.979,29.047-120.839-6.015-131.221c-25.291-7.494-66.891,41.31-67.72,106.581
			c-0.189,15.088-11.229,22.801-25.483,21.767c-8.775-0.654-18.78-4.615-28.186-12.242c-0.855-0.693-1.596-1.523-2.201-2.442
			c-33.744-51.15-38.614-132.819-34.592-200.624c5.121-86.146,75.41-181.682,179.916-181.77c15.965-0.013,40.764-2.46,51.943,0.624
			c9.91,2.734,31.188,17.544,44.701,25.07C2745.076,933.485,2741.059,1054.174,2707.643,1131.913z"/>
		<path style="fill:#F99746;" d="M2720.371,1036.034c0,0.452,0,0.915-0.012,1.345c-0.067,33.67-8.042,67.262-20.173,95.466
			c-2.835,6.585-5.896,13.271-9.194,20.015c0.012,0,0.012,0-0.011,0.022c-0.362,0.802-0.769,1.604-1.164,2.417
			c-9.928,20.061-21.821,40.347-35.624,58.734v0.023c-0.6,0.802-1.197,1.581-1.808,2.372c-4.947,6.472-10.154,12.695-15.587,18.558
			c-1.266,1.378-2.542,2.722-3.841,4.055l-0.011,0.022c-17.486,18.021-37.313,32.435-59.369,40.266
			c-4.638,1.646-9.591,2.309-14.48,1.761c-8.166-0.916-15.875-3.521-21.334-7.576c-7.682-5.67-10.968-14.187-5.016-24.905
			c31.457-56.656,27.899-116.091-5.783-126.065c-24.296-7.206-64.269,39.691-65.06,102.402c-0.181,14.491-10.786,21.9-24.487,20.906
			c-6.426-0.478-13.542-2.806-20.564-7.133c-4.938-3.043-8.996-7.32-11.966-12.303c-9.818-16.471-16.84-35.813-21.664-56.637
			c2.339,4.925,6.563,13.103,12.301,21.021c8.651,11.916,17.937,19.326,27.289,21.912c3.682,1.017,7.364,1.288,11.035,0.791
			c10.662-1.412,20.624-11.408,29.593-29.718c6.607-13.486,10.199-26.746,10.233-26.859l-1.909-0.531
			c-0.146,0.52-14.231,51.946-38.188,55.143c-29.785,3.954-50.342-46.592-50.546-47.111l-0.903,0.373
			c-1.705-7.896-3.095-15.96-4.213-24.172c-0.091-0.644-0.192-1.242-0.271-1.909c-0.012-0.022-0.012-0.022,0.011-0.033
			c-2.959-22.251-3.987-45.294-3.784-67.669l0.012-0.023c-0.012-0.429,0.012-0.881,0.012-1.31
			c0.112-10.437,0.52-20.716,1.095-30.688c1.966-32.971,13.735-66.822,33.524-95.545l0.011-0.023c0.26-0.373,0.509-0.723,0.78-1.095
			c15.53-22.207,35.873-41.273,60.214-54.409c0.654-0.373,1.354-0.723,2.033-1.084c6.912-3.603,14.152-6.743,21.687-9.352
			c0.926-0.317,1.886-0.633,2.846-0.926c2.824-0.938,5.693-1.75,8.584-2.519c0,0,0,0,0.023,0
			c26.949-7.059,57.334-7.308,90.326,1.796c36.924,10.189,64.235,26.905,83.742,47.564c0.022,0,0.022,0.023,0.034,0.023
			c2.541,2.688,4.958,5.456,7.229,8.268c0.53,0.644,1.039,1.276,1.536,1.931c4.676,5.953,8.776,12.176,12.357,18.615
			c0.236,0.418,0.463,0.813,0.677,1.22C2714.441,978.859,2720.27,1007.469,2720.371,1036.034z"/>
		<path style="fill:#EFEFEF;" d="M2538.584,1278.33c-8.976-5.246-14.584-19.953-7.564-32.071
			c32.486-56.081,29.449-111.306-4.235-121.281c-24.299-7.199-64.083,37.252-64.88,99.962c-0.182,14.496-10.044,27.72-32.064,24.023
			l7.529-3.146c0,0,12.766-1.868,16.551-15.343c3.327-11.843,6.672-135.354,74.854-118.101
			c65.84,16.66,28.913,97.214,20.714,111.973C2541.29,1239.105,2532.997,1261.507,2538.584,1278.33z"/>
		<g style="opacity:0.5;">
			<path style="fill:#FFFFFF;" d="M2537.242,1047.014l-1.967-0.273c0.084-0.679,9.23-69.049-9.137-100.588
				c-20.152-34.57-47.761-52.958-56.622-58.229c0.66-0.375,1.354-0.72,2.034-1.09c9.975,6.095,36.678,24.625,56.306,58.328
				c7.87,13.499,11.843,34.773,11.8,63.193C2539.632,1029.455,2537.271,1046.836,2537.242,1047.014z"/>
		</g>
		<g style="opacity:0.5;">
			<path style="fill:#FFFFFF;" d="M2700.594,953.456l-0.284,0.953l-1.399-0.386c-81.313-22.436-130.245,94.791-130.719,95.981
				l-1.854-0.76c0.123-0.296,12.672-30.671,35.347-57.592c29.747-35.348,63.53-48.99,97.773-39.542l0.46,0.127
				C2700.154,952.653,2700.377,953.045,2700.594,953.456z"/>
		</g>
		<g style="opacity:0.5;">
			<path style="fill:#FFFFFF;" d="M2528.811,1044.522l-1.98,0.072c-0.025-0.729-2.99-72.089-35.684-90.147
				c-32.868-18.168-81.973-10.094-82.447-10.019l-0.185-0.979l0.005-0.019c0.271-0.379,0.511-0.726,0.78-1.106
				c7.075-1.04,51.909-6.723,82.825,10.371c14.181,7.833,24.662,25.704,31.154,53.1
				C2528.104,1026.068,2528.8,1044.334,2528.811,1044.522z"/>
		</g>
		<g style="opacity:0.5;">
			<path style="fill:#FFFFFF;" d="M2720.354,1037.374l-0.654,0.727c-18.999-17.436-40.54-25.36-64.048-23.614
				c-45.822,3.43-83.162,42.295-83.475,42.683l-1.623-1.149c0.246-0.365,35.793-37.744,80.958-43.129
				c25.367-3.028,48.514,4.761,68.86,23.146C2720.371,1036.491,2720.37,1036.944,2720.354,1037.374z"/>
		</g>
		<g style="opacity:0.5;">
			<path style="fill:#FFFFFF;" d="M2517.875,1059.602c-20.072-18.851-47.913-21.926-70.281-24.4
				c-18.484-2.046-33.086-3.661-36.977-13.438c-4.439-11.156-0.865-25.711,8.691-35.392c7.069-7.161,23.302-17.489,52.778-6.209
				c48.171,18.458,50.501,71.04,50.521,71.569l-1.989,0.067c-0.017-0.516-2.323-51.803-49.241-69.777
				c-28.396-10.878-43.922-1.069-50.652,5.747c-8.876,8.99-12.352,22.977-8.26,33.258c3.451,8.669,17.524,10.225,35.349,12.197
				c22.665,2.504,50.87,5.623,71.425,24.928L2517.875,1059.602z"/>
		</g>
		<g style="opacity:0.5;">
			<path style="fill:#FFFFFF;" d="M2661.722,1100.12c-6.338-1.749-13.595-5.18-21.7-9.015c-19.223-9.09-43.143-20.404-70.125-16.447
				l-0.287-1.969c27.572-4.041,51.799,7.411,71.263,16.62c15.675,7.407,28.062,13.27,35.987,8.033
				c8.446-5.577,16.068-16.437,14.056-28.126c-1.506-8.747-9.022-20.563-36.022-27.27c-48.807-12.076-81.754,26.781-82.081,27.175
				l-1.531-1.269c0.335-0.403,34.05-40.218,84.089-27.838c28.09,6.99,35.898,19.532,37.506,28.865
				c2.165,12.572-5.932,24.188-14.918,30.123C2673.518,1101.936,2668.082,1101.875,2661.722,1100.12z"/>
		</g>
		<g style="opacity:0.5;">
			<path style="fill:#FFFFFF;" d="M2521.47,1068.061l-0.778,1.849c-0.992-0.438-98.666-41.274-146.149,1.827l-0.668-0.721
				l0.006-0.02c-0.004-0.434,0.017-0.882,0.013-1.316C2422.547,1026.674,2520.472,1067.641,2521.47,1068.061z"/>
		</g>
		<g style="opacity:0.5;">
			<path style="fill:#FFFFFF;" d="M2520.669,1076.423c-1.072-0.151-108.517-14.921-141.842,64.583l-0.908-0.374
				c-0.091-0.644-0.191-1.249-0.276-1.913c-0.014-0.024-0.014-0.024,0.01-0.038c34.66-79.178,142.199-64.382,143.31-64.22
				L2520.669,1076.423z"/>
		</g>
		<g style="opacity:0.5;">
			<path style="fill:#FFFFFF;" d="M2428.67,1168.063c-3.705-1.022-6.955-3.93-9-8.165c-4.036-8.365-3.893-23.278,8.616-40.034
				c26.184-35.072,96.45-34.748,97.157-34.74l-0.021,1.989c-0.697-0.007-69.965-0.32-95.541,33.94
				c-11.978,16.044-12.203,30.139-8.419,37.98c2.22,4.603,5.825,7.31,9.909,7.441c5.002,0.15,9.868-3.537,13.702-10.387
				c15.165-27.09,56.351-64.855,88.976-64.818v1.99c-31.902-0.037-72.313,37.134-87.24,63.799
				c-4.216,7.529-9.719,11.578-15.498,11.402C2430.413,1168.435,2429.528,1168.299,2428.67,1168.063z"/>
		</g>
		<g style="opacity:0.5;">
			<path style="fill:#FFFFFF;" d="M2687.559,933.621l-0.484,0.856c-16.826-9.532-37.4,2.37-59.184,14.991
				c-4.052,2.348-8.251,4.78-12.384,7.044c-12.538,6.857-24.866,8.84-35.853,5.809c-0.844-0.233-1.676-0.504-2.504-0.794
				c-13.329-4.71-24.027-16.636-31.783-35.489c-12.16-29.435-40.326-43.706-52.132-48.552c0.934-0.32,1.887-0.635,2.854-0.925
				c13.059,5.688,39.379,20.294,51.096,48.72c7.557,18.302,17.858,29.872,30.628,34.365c11.057,3.897,23.754,2.222,36.752-4.88
				c4.107-2.25,8.282-4.668,12.335-7.016c21.46-12.421,41.751-24.195,59.127-16.058
				C2686.553,932.333,2687.059,932.967,2687.559,933.621z"/>
		</g>
		<g style="opacity:0.5;">
			<path style="fill:#FFFFFF;" d="M2690.986,1152.859c0.02,0.005,0.02,0.005-0.005,0.02c-0.367,0.807-0.772,1.603-1.164,2.423
				c-21.722-58.194-122.211-72.593-123.245-72.733l0.279-1.986C2567.867,1080.718,2667.524,1094.99,2690.986,1152.859z"/>
		</g>
		<g style="opacity:0.5;">
			<path style="fill:#FFFFFF;" d="M2654.197,1214.035l-0.006,0.02c-0.594,0.806-1.201,1.587-1.809,2.368l-0.477-0.069
				c12.141-85.35-87.656-127.762-88.674-128.187l0.773-1.829C2565.004,1086.758,2664.237,1128.891,2654.197,1214.035z"/>
		</g>
		<g style="opacity:0.5;">
			<path style="fill:#FFFFFF;" d="M2595.229,1214.02c-0.857-0.237-1.686-0.574-2.472-1.013c-5.051-2.813-7.699-9.11-7.457-17.735
				c0.858-30.547-14.773-83.182-42.182-99.509l1.021-1.709c28.028,16.698,44.021,70.239,43.148,101.274
				c-0.221,7.846,2.065,13.508,6.437,15.942c3.575,1.984,8.056,1.506,12.323-1.307c7.271-4.792,14.304-17.008,12.249-36.924
				c-4.389-42.528-64.019-77.78-64.621-78.132l1.002-1.719c0.611,0.356,61.104,36.11,65.598,79.646
				c2.147,20.8-5.377,33.677-13.132,38.788C2603.218,1214.212,2598.935,1215.041,2595.229,1214.02z"/>
		</g>
		<g style="opacity:0.5;">
			<path style="fill:#FFFFFF;" d="M2636.801,1234.984c-1.27,1.383-2.547,2.723-3.844,4.057l-0.005,0.02
				c-4.557,3.055-12.183,7.738-20.911,11.479c-13.545,5.795-25.314,7.396-34.689,4.81c-3.662-1.011-6.962-2.663-9.854-4.968
				c-8.451-6.686-11.854-20.375-10.189-40.692c1.261-14.962,4.974-28.194,5.006-28.31l1.917,0.529
				c-0.162,0.512-14.422,51.894,4.501,66.915c23.543,18.689,67.092-14.19,67.535-14.522L2636.801,1234.984z"/>
		</g>
		<path style="fill:#FCCBA2;" d="M2678.764,923.396c-16.031-13.46-50.035-18.568-69.242-5.041
			c-13.514,9.518-51.949,124.335-51.949,124.335l-10.784-2.977c0,0,30.302-110.448,11.478-137.564
			c-13.157-18.953-52.305-27.939-53.579-28.105c26.957-7.067,57.333-7.31,90.329,1.794
			C2631.943,886.027,2659.249,902.743,2678.764,923.396z"/>
		<path style="fill:#FFFFFF;" d="M2511.332,1064.586c4.979-18.044,23.642-28.636,41.686-23.657
			c18.045,4.979,28.636,23.643,23.657,41.687s-23.642,28.635-41.687,23.656C2516.945,1101.293,2506.354,1082.63,2511.332,1064.586z"
			/>
		<path style="fill:#EFEFEF;" d="M2518.889,1066.671c3.827-13.87,18.174-22.012,32.044-18.185s22.013,18.173,18.186,32.044
			c-3.827,13.87-18.174,22.012-32.044,18.185C2523.203,1094.888,2515.063,1080.541,2518.889,1066.671z"/>
	</g>
	<g>
		<path style="fill:#EBF3FA;" d="M2619.983,1758.115h-159.117V1588.82h159.215c5.567,0,10.081,4.513,10.081,10.08v149.037
			C2630.162,1753.559,2625.604,1758.115,2619.983,1758.115z"/>
		<path style="fill:#FFFFFF;" d="M2515.549,1758.115h-149.468c-5.882,0-10.649-4.768-10.649-10.649V1600.45
			c0-6.423,5.207-11.63,11.63-11.63h147.798c5.449,0,9.867,4.418,9.867,9.867v150.251
			C2524.727,1754.007,2520.618,1758.115,2515.549,1758.115z"/>
		<g>
			<path style="fill:#699DEE;" d="M2411.809,1637.045c0-0.793-0.129-1.495-0.386-2.109c-0.257-0.613-0.692-1.175-1.308-1.684
				c-0.614-0.508-1.423-0.974-2.426-1.396c-1.003-0.422-2.258-0.845-3.763-1.268c-1.453-0.409-2.76-0.854-3.922-1.336
				c-1.161-0.482-2.148-1.046-2.96-1.693c-0.813-0.646-1.439-1.394-1.882-2.238s-0.663-1.834-0.663-2.971
				c0-1.108,0.237-2.119,0.713-3.03c0.475-0.911,1.142-1.692,2.001-2.347c0.857-0.653,1.88-1.162,3.069-1.524
				c1.188-0.363,2.488-0.545,3.901-0.545c1.518,0,2.888,0.225,4.108,0.674c1.222,0.449,2.262,1.063,3.12,1.841
				c0.858,0.78,1.518,1.691,1.979,2.733c0.463,1.044,0.693,2.165,0.693,3.366h-2.455c0-0.937-0.165-1.805-0.494-2.604
				c-0.332-0.799-0.813-1.488-1.447-2.069c-0.634-0.581-1.412-1.036-2.337-1.367c-0.925-0.329-1.979-0.495-3.168-0.495
				s-2.234,0.143-3.14,0.426c-0.904,0.284-1.656,0.667-2.258,1.149c-0.601,0.481-1.057,1.047-1.366,1.693
				c-0.31,0.647-0.466,1.333-0.466,2.06c0,0.687,0.129,1.32,0.387,1.901s0.69,1.118,1.297,1.613
				c0.607,0.495,1.406,0.958,2.396,1.387c0.991,0.429,2.212,0.835,3.664,1.218c1.519,0.423,2.872,0.885,4.06,1.387
				c1.188,0.502,2.192,1.093,3.011,1.772s1.439,1.463,1.861,2.347c0.423,0.885,0.633,1.907,0.633,3.069
				c0,1.176-0.246,2.228-0.742,3.159c-0.495,0.931-1.182,1.72-2.059,2.367c-0.879,0.646-1.926,1.142-3.14,1.484
				c-1.215,0.343-2.535,0.515-3.961,0.515c-0.858,0-1.72-0.072-2.585-0.217c-0.864-0.146-1.696-0.367-2.494-0.664
				c-0.799-0.297-1.546-0.677-2.238-1.139c-0.693-0.462-1.294-1.014-1.803-1.653c-0.508-0.641-0.911-1.373-1.208-2.198
				c-0.296-0.825-0.445-1.746-0.445-2.763h2.436c0,1.214,0.251,2.241,0.753,3.079c0.501,0.839,1.148,1.515,1.94,2.03
				c0.792,0.515,1.684,0.888,2.674,1.119c0.991,0.23,1.981,0.347,2.971,0.347c1.122,0,2.142-0.13,3.06-0.387
				c0.918-0.258,1.703-0.624,2.357-1.1c0.653-0.476,1.154-1.046,1.504-1.713C2411.634,1638.606,2411.809,1637.864,2411.809,1637.045
				z"/>
			<path style="fill:#699DEE;" d="M2432.742,1641.421c-0.673,0.978-1.567,1.74-2.684,2.288c-1.115,0.548-2.498,0.821-4.148,0.821
				c-1.057,0-2.014-0.148-2.871-0.445c-0.859-0.297-1.599-0.769-2.219-1.416c-0.621-0.646-1.1-1.481-1.436-2.505
				c-0.337-1.022-0.506-2.268-0.506-3.732v-13.726h2.357v13.765c0,1.148,0.131,2.105,0.396,2.871
				c0.264,0.766,0.619,1.38,1.068,1.842c0.449,0.463,0.974,0.793,1.575,0.991c0.6,0.197,1.237,0.297,1.91,0.297
				c0.951,0,1.789-0.106,2.516-0.317s1.353-0.508,1.882-0.891c0.528-0.383,0.964-0.832,1.307-1.347
				c0.343-0.516,0.614-1.083,0.813-1.703v-15.508h2.377v21.429h-2.298L2432.742,1641.421z"/>
			<path style="fill:#699DEE;" d="M2440.288,1633.223c0-1.664,0.188-3.166,0.564-4.506s0.921-2.485,1.634-3.437
				c0.713-0.949,1.581-1.683,2.604-2.198c1.023-0.514,2.182-0.771,3.476-0.771c1.531,0,2.845,0.307,3.941,0.921
				c1.095,0.614,2,1.469,2.713,2.564l0.118-3.09h2.218v21.053c0,1.387-0.203,2.631-0.612,3.732
				c-0.409,1.104-0.987,2.037-1.733,2.803s-1.647,1.354-2.703,1.763c-1.057,0.409-2.238,0.613-3.545,0.613
				c-0.674,0-1.36-0.076-2.06-0.228c-0.7-0.151-1.377-0.379-2.03-0.684c-0.654-0.304-1.271-0.683-1.852-1.138
				c-0.581-0.456-1.09-0.994-1.525-1.614l1.326-1.427c0.872,1.07,1.797,1.853,2.773,2.348c0.978,0.495,2.046,0.742,3.209,0.742
				c1.016,0,1.917-0.155,2.702-0.465c0.785-0.311,1.449-0.759,1.991-1.348c0.541-0.588,0.953-1.3,1.237-2.139
				c0.284-0.838,0.427-1.792,0.427-2.861v-2.496c-0.713,0.991-1.617,1.767-2.714,2.328s-2.403,0.841-3.921,0.841
				c-1.281,0-2.43-0.267-3.446-0.802s-1.882-1.28-2.595-2.237c-0.713-0.958-1.258-2.103-1.634-3.437s-0.564-2.805-0.564-4.416
				V1633.223z M2442.686,1633.639c0,1.254,0.124,2.42,0.375,3.495c0.251,1.076,0.634,2.01,1.148,2.803
				c0.516,0.792,1.165,1.413,1.951,1.86c0.786,0.449,1.721,0.675,2.803,0.675c0.818,0,1.555-0.1,2.208-0.297
				c0.653-0.198,1.23-0.473,1.732-0.823c0.502-0.35,0.938-0.762,1.308-1.237c0.369-0.476,0.686-0.996,0.951-1.564v-9.961
				c-0.226-0.556-0.513-1.087-0.862-1.595s-0.772-0.957-1.268-1.346c-0.495-0.39-1.073-0.701-1.732-0.932
				c-0.661-0.231-1.427-0.348-2.298-0.348c-1.097,0-2.039,0.229-2.831,0.685c-0.794,0.455-1.446,1.078-1.962,1.871
				c-0.515,0.792-0.897,1.729-1.148,2.812c-0.251,1.084-0.375,2.245-0.375,3.486V1633.639z"/>
			<path style="fill:#699DEE;" d="M2477.264,1644.135c-0.133-0.369-0.236-0.821-0.308-1.356c-0.072-0.535-0.122-1.079-0.148-1.634
				c-0.356,0.462-0.78,0.897-1.268,1.307c-0.489,0.409-1.037,0.766-1.644,1.069c-0.607,0.305-1.275,0.548-2.001,0.733
				c-0.726,0.185-1.513,0.276-2.356,0.276c-1.043,0-1.99-0.151-2.842-0.455s-1.578-0.729-2.179-1.277
				c-0.602-0.547-1.066-1.191-1.396-1.931c-0.33-0.74-0.495-1.545-0.495-2.416c0-1.043,0.225-1.983,0.674-2.822
				c0.449-0.838,1.096-1.552,1.94-2.14c0.845-0.587,1.872-1.036,3.079-1.346c1.209-0.311,2.564-0.466,4.07-0.466h4.396v-2.437
				c0-1.53-0.472-2.735-1.416-3.613c-0.943-0.878-2.32-1.317-4.129-1.317c-0.831,0-1.598,0.111-2.297,0.337
				c-0.701,0.224-1.305,0.535-1.813,0.931c-0.509,0.396-0.904,0.855-1.188,1.376c-0.285,0.521-0.426,1.079-0.426,1.674l-2.377-0.02
				c0-0.806,0.197-1.585,0.594-2.337c0.396-0.753,0.954-1.424,1.674-2.01c0.719-0.588,1.584-1.061,2.594-1.417
				c1.011-0.356,2.129-0.534,3.357-0.534c1.136,0,2.181,0.146,3.139,0.436c0.957,0.291,1.779,0.727,2.465,1.307
				c0.688,0.581,1.222,1.308,1.605,2.179c0.383,0.871,0.573,1.889,0.573,3.05v10.377c0,0.371,0.013,0.754,0.04,1.15
				c0.026,0.396,0.069,0.778,0.129,1.147c0.06,0.37,0.129,0.723,0.208,1.061c0.079,0.336,0.171,0.63,0.277,0.881v0.237H2477.264z
				 M2469.816,1642.432c0.858,0,1.653-0.109,2.386-0.326c0.733-0.219,1.396-0.519,1.991-0.901c0.594-0.383,1.108-0.828,1.544-1.337
				s0.785-1.061,1.05-1.653v-4.715h-4.061c-1.214,0-2.301,0.109-3.257,0.328c-0.957,0.217-1.766,0.531-2.427,0.94
				c-0.659,0.409-1.164,0.908-1.514,1.495c-0.352,0.588-0.525,1.251-0.525,1.99c0,0.581,0.112,1.126,0.336,1.634
				c0.226,0.509,0.545,0.951,0.961,1.327s0.921,0.673,1.516,0.892C2468.41,1642.322,2469.076,1642.432,2469.816,1642.432z"/>
			<path style="fill:#699DEE;" d="M2495.363,1624.727c-0.501-0.093-1.036-0.139-1.604-0.139c-0.805,0-1.531,0.119-2.178,0.356
				c-0.648,0.238-1.219,0.571-1.714,1c-0.495,0.43-0.911,0.938-1.247,1.524c-0.338,0.588-0.604,1.238-0.803,1.951v14.715h-2.356
				v-21.429h2.317l0.039,3.406c0.581-1.175,1.37-2.103,2.367-2.782c0.996-0.681,2.221-1.02,3.674-1.02
				c0.29,0,0.587,0.026,0.891,0.079s0.527,0.112,0.674,0.179L2495.363,1624.727z"/>
		</g>
		<g>
			<path style="fill:#699DEE;" d="M2383.654,1697.463c0-17.092,10.608-30.479,26.27-30.479c15.576,0,26.101,13.218,26.101,30.479
				c0,17.092-10.524,30.479-26.27,30.479S2383.654,1714.724,2383.654,1697.463z M2422.723,1697.463
				c0-10.693-5.222-18.776-12.968-18.776s-12.798,7.83-12.798,18.776c0,10.777,5.136,18.775,12.967,18.775
				C2417.754,1716.238,2422.723,1708.324,2422.723,1697.463z"/>
			<path style="fill:#699DEE;" d="M2442.492,1692.586c0-6.471,4.509-11.699,11.176-11.699c6.601,0,11.045,5.163,11.045,11.699
				c0,6.404-4.51,11.698-11.175,11.698C2446.936,1704.284,2442.492,1699.121,2442.492,1692.586z M2480.463,1681.409h7.777
				l-33.396,45.749h-7.776L2480.463,1681.409z M2457.851,1692.586c0-3.072-1.698-5.752-4.313-5.752
				c-2.746,0-4.183,2.614-4.183,5.752c0,3.07,1.698,5.751,4.313,5.751C2456.412,1698.337,2457.851,1695.656,2457.851,1692.586z
				 M2470.596,1715.982c0-6.47,4.509-11.698,11.176-11.698c6.6,0,11.044,5.162,11.044,11.698c0,6.405-4.51,11.698-11.176,11.698
				C2475.039,1727.681,2470.596,1722.518,2470.596,1715.982z M2485.954,1715.982c0-3.072-1.7-5.752-4.314-5.752
				c-2.745,0-4.183,2.614-4.183,5.752c0,3.071,1.699,5.751,4.314,5.751C2484.516,1721.733,2485.954,1719.054,2485.954,1715.982z"/>
		</g>
	</g>
	<g>
		<g>
			<path style="fill:#EA8E50;" d="M1907.36,1319.395l8.131,6.603c0,0,22.241-7.976,27.261,18.453c0,0,1.336,11.264-5.799,11.285
				c-7.135,0.021-4.19-1.231-14.295-0.936c-10.104,0.296-18.478-5.03-19.957-13.229l-4.834-6.946L1907.36,1319.395z"/>
			<path style="fill:#1E3D70;" d="M1906.44,1333.564c6.486-6.773,5.964-11.779,5.964-11.779s-75.111-61.494-82.729-66.505
				c-5.19-3.414-60.506-52.453-86.363-82.349c-12.826-14.83-28.713-9.076-46.89-3.861l-14.969,4.295
				c-18.074,5.186-22.775,30.466-7.945,42.75c41.768,34.596,111.25,73.509,124.25,81.687c32.274,20.302,95.448,44.427,95.448,44.427
				S1900.87,1339.38,1906.44,1333.564z"/>
		</g>
		<path style="fill:#233862;" d="M1992.156,1711.379c0,0,18.229,13.656,46.159,6.439c0,0,22.52-5.131,27.459,6.1
			c0,0-34.538,17.547-43.277,22.345c-6.588,3.616-13.461,9.325-18.319,13.737c-3.847,3.494-9.837,3.02-13.115-1.012
			c-1.52-1.868-3.258-4.092-5.163-6.674c-5.325-7.217-17.733-30.527-17.733-30.527L1992.156,1711.379z"/>
		<path style="fill:#2B478B;" d="M2002.856,1704.439c0,0-11.1,25.594-36.72,20.889c0,0-52.282-43.176-88.145-88.029
			c-11.647-14.567-21.564-29.312-27.391-42.804c-23.782-55.061-87.969-137.182-128.779-178.803l102.104-36.937
			c0,0,32.705,65.788,76.22,146.598C1931.505,1583.577,1968.469,1649.603,2002.856,1704.439z"/>
		<path style="fill:#233862;" d="M1900.146,1525.354l-22.153,111.945c-11.647-14.567-21.564-29.312-27.391-42.804
			c-23.782-55.061-87.969-137.182-128.779-178.803l102.104-36.937C1823.926,1378.756,1856.631,1444.544,1900.146,1525.354z"/>
		<path style="fill:#233862;" d="M1816.686,1726.231c0,0-1.112,20.422,23.645,23.146c0,0,14.147,0.076,14.188,13.073l-71.954,0.228
			c0,0-2.089-5.243-2.596-16.473c-0.39-8.624,8.357-31.168,8.357-31.168L1816.686,1726.231z"/>
		<path style="fill:#2B478B;" d="M1790.437,1378.756c0,0,45.486,49.98,74.36,140.026c15.71,48.992-28.795,172.17-37.47,214.967
			c0,0-29.854,2.533-50.269-5.358c0,0-1.551-88.395,10.388-156.524c6.682-38.129-59.89-81.546-88.979-150.441
			c-19.79-46.87,4.284-46.074,33.871-47.2L1790.437,1378.756z"/>
		<path style="fill:#FFB07B;" d="M1737.929,1155.769c-25.308,14.29-77.117,1.11-77.117,1.11s21.04-24.053,11.479-62.792
			l19.871,10.091l21.343,10.84c0,0,1.38,6.842,2.34,19.13c0.244,3.164,0.463,6.699,0.614,10.562
			C1729.453,1148.648,1737.929,1155.769,1737.929,1155.769z"/>
		<path style="fill:#2A4E96;" d="M1830.727,1376.174c0,4.447-5.124,6.577-6.213,6.793c-10.207,1.866-38.707,12.953-64.382,15.494
			c-21.618,2.265-41.689,0.115-63.74-4.313c-2.921-0.588-9.775-2.434-10.262-5.232c-0.608-3.056-85.055-172.15-19.408-244.787
			c1.542-1.703,14.5,1.366,26.351,4.178c10.944,2.596,20.983,1.149,29.947-2.447l11.113,5.848
			c13.648,7.605,39.472,34.625,42.493,55.824c1.535,10.782,7.7,18.766,9.484,28.25c0.662,3.509,1.339,6.936,2.028,10.275
			c1.345,6.551,2.73,12.783,4.157,18.712c3.86,16.034,7.937,29.839,11.938,41.764c4.259,12.661,8.436,23.193,12.168,32.001
			c4.84,11.425,8.93,19.963,11.484,26.5C1829.692,1369.637,1830.727,1373.246,1830.727,1376.174z"/>
		<path style="fill:#1E3D70;" d="M1827.887,1365.033c-119.205-56.162-160.489-164.005-160.489-164.005s96.851,35.727,120.741,45.028
			c1.345,6.551,2.73,12.783,4.157,18.712c3.86,16.034,7.937,29.839,11.938,41.764c4.259,12.661,8.436,23.193,12.168,32.001
			C1821.242,1349.958,1825.332,1358.496,1827.887,1365.033z"/>
		<path style="fill:#EA8E50;" d="M1715.845,1134.147c-24.887,1.397-41.07-19.149-41.07-19.149s11.252-6.233,17.388-10.82
			l21.343,10.84C1713.505,1115.018,1714.885,1121.859,1715.845,1134.147z"/>
		<path style="fill:#FFB07B;" d="M1726.447,1108.597c0,0-37.707,27.06-54.197,3.318s-32.463-36.238-9.085-54.52
			c23.378-18.28,34.398-12.505,41.83-5.92C1712.427,1058.062,1735.831,1100.946,1726.447,1108.597z"/>
		<path style="fill:#233862;" d="M1708.979,1030.034c-1.352-9.126-4.394-15.549-4.394-15.549s-2.366,9.803-20.28,8.45
			c-17.914-1.352-46.307,1.762-55.771,22.175c-0.602,1.299-1.139,2.637-1.616,4.005c-1.713-4.525-2.125-11.308-2.125-11.308
			c-3.404,8.788,0,19.78,0,19.78h0.001c-0.052,0.32-0.093,0.642-0.14,0.963c-3.953,3.343-7.273,13.733-7.273,13.733
			c1.192-2.897,4.103-4.789,6.696-5.954c-0.08,15.885,6.361,31.413,17.668,36.036c16.533,6.76,16.401,1.604,33.029,12.632
			c0,0,4.46-5.534,1.418-9.252s-14.534-9.126-8.112-14.534c6.423-5.408,8.788,0.676,11.154-3.042s-9.464-14.534,5.746-24.674
			C1700.19,1053.355,1710.331,1039.16,1708.979,1030.034z"/>
		<g>
			<path style="fill:#FFC299;" d="M1900.146,1350.831c0,0,20.177,6.803,31.798,6.52c11.622-0.283,31.837-12.51,31.877-13.372
				c0.041-0.862-9.085-6.128-22.323-4.456c-13.238,1.671-15.934-0.313-11.821-1.958c4.63-1.851,7.932-4.62,6.804-6.386
				c-0.623-0.976-7.276,1.134-9.544,1.89s-7.936-1.322-12.66,2.086c-3.14,2.266-14.929,3.961-14.929,3.961L1900.146,1350.831z"/>
			<path style="fill:#2A4E96;" d="M1908.122,1344.276c3.556-10.03,5.181-14.573,5.181-14.573s-79.413-61.459-87.479-66.698
				c-5.496-3.571-60.298-42.417-87.313-73.087c-13.399-15.214-34.089-21.801-53.819-17.14l-16.248,3.838
				c-19.619,4.634-25.396,29.761-9.766,42.491c44.023,35.852,117.784,76.861,131.56,85.432
				c34.199,21.274,109.39,50.396,109.39,50.396S1905.329,1352.154,1908.122,1344.276z"/>
		</g>
	</g>
	<g>
		<path style="fill:#ED985F;" d="M1229.606,1247.017c-6.162,5.451-22.515-13.271-24.767-15.76c-0.119-0.237-0.237-0.355-0.237-0.355
			l4.978-13.865c0,0,21.449-0.829,25.003,2.726C1238.138,1223.317,1236.36,1241.211,1229.606,1247.017z"/>
		<path style="fill:#ED985F;" d="M1209.58,1217.036l-2.133,14.34c0,0-0.948,0-2.607-0.119c-5.214-0.355-17.894-1.065-32.232-2.608
			c-21.567-2.132-47.163-5.925-57.354-12.204c-15.523-9.479-41.001-38.513-57.591-67.546c-0.475-0.71-0.83-1.42-1.186-2.132
			c-8.65-15.405-14.694-30.692-15.167-42.897c-0.356-7.465,0.474-13.864,2.014-19.434c2.015-7.347,5.333-13.153,8.769-17.538
			c0.475-0.712,0.948-1.422,1.659-2.015c5.688-6.754,11.258-9.598,11.258-9.598c2.844-1.187,5.925,0.237,9.124,3.673v0.118
			c2.607,2.727,5.451,6.873,8.176,12.087c0.119,0.119,0.237,0.237,0.237,0.356c0.592,1.066,1.186,2.251,1.896,3.554
			c0.236,0.237,0.355,0.594,0.474,0.831c1.303,2.725,2.606,5.568,3.911,8.531c14.575,31.757,30.099,79.869,43.016,94.207
			c5.569,6.162,31.047,18.249,51.31,27.255C1197.729,1212.297,1209.58,1217.036,1209.58,1217.036z"/>
		<g>
			<path style="fill:#82B378;" d="M1421.643,1233.554c-0.462-1.403-0.946-2.804-1.452-4.201
				c-28.308-78.192-117.729-118.986-196.251-89.579c-77.849,29.154-118.241,115.03-90.299,192.876
				c0.132,0.368,0.266,0.736,0.4,1.103c15.042,40.915,16.091,85.512,3.703,127.438c-13.847,46.866-13.222,98.359,5.136,147.656
				c44.812,120.337,179.895,182.253,301.703,138.355c122.966-44.314,187.127-179.049,143.322-301.096
				c-17.895-49.856-51.043-89.885-92.385-116.797C1460.667,1306.621,1434.615,1272.934,1421.643,1233.554z"/>
			<path style="fill:#CEE085;" d="M1411.778,1242.77c-0.433-1.313-0.886-2.621-1.359-3.929
				c-26.467-73.119-108.989-111.66-181.111-84.63c-71.503,26.798-108.229,106.727-82.102,179.521
				c0.124,0.344,0.249,0.688,0.375,1.031c14.06,38.262,15.26,79.885,4.079,118.945c-12.5,43.664-11.653,91.722,5.503,137.823
				c41.881,112.537,166.543,171.029,278.431,130.704c112.951-40.709,171.3-166.108,130.336-280.234
				c-16.734-46.622-47.456-84.151-85.651-109.484C1448.082,1311.162,1423.924,1279.588,1411.778,1242.77z"/>
			<path style="fill:#F99746;" d="M1478.829,1490.828c20.793,57.931-9.312,121.746-67.242,142.539
				c-3.112,1.117-6.24,2.085-9.367,2.916c-55.293,14.566-113.496-15.34-133.172-70.158c-13.118-36.548-5.975-75.429,15.623-104.377
				c12.641-16.941,30.237-30.487,51.619-38.162C1394.221,1402.793,1458.036,1432.898,1478.829,1490.828z"/>
			<path style="fill:#ED7D2B;" d="M1417.862,1531.879c13.122,36.557,5.976,75.458-15.643,104.404
				c-55.293,14.566-113.496-15.34-133.172-70.158c-13.118-36.548-5.975-75.429,15.623-104.377
				C1339.961,1447.144,1398.184,1477.053,1417.862,1531.879z"/>
		</g>
		<path style="fill:#2B478B;" d="M1054.36,1733.472l-15.658,5.83c0,0-68.013-94.329-76.386-177.323
			c-1.496-14.816-0.997-29.173,2.237-42.43c0,0-0.665-3.797-1.828-10.509c-0.537-3.132-1.202-6.903-1.956-11.224
			c-2.212-12.67-5.254-30.005-8.732-49.743c-8.003-45.422-18.371-103.486-26.425-146.172l4.219-1.355l45.652-14.727l9.435-29.966
			l33.993-8.949c0,0,7.594,14.855,14.382,85.026c1.253,9.204,2.391,19.354,3.247,30.362c2.646,33.596,2.838,75.271-3.234,122.918
			c-1.56,12.196-3.528,24.788-5.97,37.726c-1.79,9.485-2.058,22.41-1.304,37.253
			C1029.457,1628.033,1054.36,1733.472,1054.36,1733.472z"/>
		<path style="fill:#233862;" d="M1036.539,1362.293l-73.815,146.747c-0.537-3.132-1.202-6.903-1.956-11.224
			c-2.212-12.67-5.254-30.005-8.732-49.743c-8.003-45.422-18.371-103.486-26.425-146.172l4.219-1.355l45.652-14.727l9.435-29.966
			l33.993-8.949c0,0,7.594,14.855,14.382,85.026C1034.545,1341.135,1035.683,1351.285,1036.539,1362.293z"/>
		<path style="fill:#2B478B;" d="M1004.066,1265.736l-1.709-14.653c-28.628,7.604-105.119-21.248-105.119-21.248
			s-27.733,24.379-24.092,82.816c1.777,28.522,5.023,149.725,8.414,185.59c1.226,12.999,2.299,22.25,2.738,25.944
			c0.009,0.018,0.009,0.027,0.009,0.036c0.134,1.127-0.259,2.191-0.832,3.176c-4.992,8.472-9.125,17.293-12.516,26.32
			c-33.28,88.685,5.126,197.9,5.126,197.9l9.966-4.017c0,0,21.855-121.545,39.614-175.24c3.015-9.107,5.904-16.265,8.553-20.541
			c7.721-12.462,14.886-32.823,21.39-57.041c12.292-45.786,22.186-105.35,28.771-151.324
			C985.288,1343.497,1004.066,1265.736,1004.066,1265.736z"/>
		<path style="fill:#FFB27D;" d="M1058.758,1088c-8.987,4.167-19.841,7.005-32.97,7.721c-49.218,2.697-60.392-40.448-62.424-69.084
			c7.095-2.57,13.308-2.327,16.888-2.136c3.49,0.192,7.133,0.55,10.137,0.921c6.021-3.145,16.837-18.422,23.088-43.977l2.121,0.984
			l35.514,16.696c0,0-3.771,11.557-6.558,22.615c-2.173,8.654-3.733,17.016-2.429,19.355c2.8,1.138,4.475,1.854,4.475,1.854
			s0,0.013,0.013,0.038C1046.971,1043.895,1054.692,1063.569,1058.758,1088z"/>
		<path style="fill:#F99746;" d="M1071.069,1120.292c-0.371,0.984-0.78,1.943-1.228,2.928
			c-12.464,26.846-35.539,138.054-35.539,138.054c3.285,19.994-150.263-3.925-150.66-22.129
			c-5.408-19.304,19.188-50.317,33.06-65.876c1.738-1.956,3.298-4.053,4.653-6.264c3.426-5.549,5.599-11.813,6.29-18.358
			c2.724-25.807,1.687-49.991,1.916-64.698c0,0,0.001-0.001,0.001-0.002c2.71-2.007,5.331-3.86,7.773-5.624
			c3.733-2.724,7.031-5.268,9.46-7.85c2.672-2.813,4.347-5.689,4.538-8.936c0.141-2.455,0.064-4.974-0.191-7.492
			c-0.115-1.188-0.269-2.378-0.448-3.566c-1.917-12.49-7.133-23.816-7.133-23.816c13.206-5.344,36.69-2.161,36.69-2.161
			s-0.026,1.305-0.039,3.439c-0.077,8.578,0,30.604,2.748,34.772c3.439,5.19,66.349,27.933,69.673,20.889
			c3.272-6.929-5.689-39.387-6.021-40.614c-0.013-0.025-0.013-0.038-0.013-0.038c21.068,8.271,28.598,15.212,28.598,15.212
			C1062.503,1066.395,1080.887,1094.251,1071.069,1120.292z"/>
		<path style="fill:#2C3A64;" d="M1028.693,888.318c-0.078-2.134-1.729-25.128-36.753-26.329c0,0,17.223,2.053,20.198,9.625
			c0,0-11.727-9.356-21.277-6.346c-9.55,3.009-15.159,19.74-15.215,25.244c-0.056,5.503,5.25,23.244,11.31,24.752
			c2.296,0.571,4.94,0.418,7.341,0.009c-1.612,2.518-3.193,5.296-4.704,8.397c-13.975,28.688,0.438,56.725,12.269,53.628
			c7.588-1.987,9.735,10.961,9.735,10.961l73.719-59.681C1085.316,928.578,1058.239,872.55,1028.693,888.318z"/>
		<path style="fill:#ED985F;" d="M1051.114,999.132c0,0-3.776,11.545-6.558,22.615c-20.759-5.792-27.062-27.613-28.959-39.31
			L1051.114,999.132z"/>
		<path style="fill:#FFB27D;" d="M1055.485,1011.357c0,0-49.664-11.494-42.03-42.313c7.634-30.818,6.365-53.057,38.397-47.022
			c32.032,6.036,35.257,19.316,35.21,30.222C1087.017,963.152,1068.601,1013.553,1055.485,1011.357z"/>
		<path style="fill:#2C3A64;" d="M1089.855,934.748c-5.339-11.17-11.623-10.574-15.554-8.594
			c-23.336-21.591-46.225-3.952-46.225-3.952c-8.81,21.283-27.904,29.98-27.904,29.98s7.629,7.813,29.743,7.641
			c6.754-0.053,13.546-3.154,19.726-7.427c-11.92,12.005-25.896,19.313-25.896,19.313c27.682-5.297,46.244-37.344,48.146-40.748
			c2.345,3.463,6.831,10.834,7.208,17.059c0.513,8.459-2.397,24.887,2.446,25.509C1081.545,973.529,1097.862,951.5,1089.855,934.748
			z"/>
		<path style="fill:#F99746;" d="M1075.203,1058.156c0,0,11.958,20.859,13.747,26.228c0,0-15.507-0.597-21.769,11.332
			C1067.181,1095.716,1065.68,1060.968,1075.203,1058.156z"/>
		<path style="fill:#ED7D2B;" d="M992.958,1223.906c-30.285-0.32-55.93-31.769-71.603-56.901c3.426-5.549,5.599-11.813,6.29-18.358
			c2.724-25.807,1.687-49.991,1.916-64.698c0,0,0.001-0.001,0.001-0.002c2.71-2.007,5.331-3.86,7.773-5.624
			c3.733-2.724,7.031-5.268,9.46-7.85C971.597,1112.392,1034.021,1224.341,992.958,1223.906z"/>
		<path style="fill:#FFB27D;" d="M1155.253,1253.53c-2.632,2.019-23.645,10.229-31.647,7.715
			c-4.468-1.405-20.018-5.251-26.298-6.792c-2.488-0.475-11.441-2.222-11.441-2.222l6.754-19.671c0,0,0.259,0.038,0.829,0.237
			c2.569,0.896,7.515,3.332,13.983,4.299c7.977,1.191,17.929-3.82,23.107-0.98c10.962,6.011,26.09-0.083,29.577,3.118
			C1162.744,1241.648,1161.795,1248.516,1155.253,1253.53z"/>
		<path style="fill:#FFB27D;" d="M1107.433,1240.382l-4.148,15.167c0,0-5.214-0.947-13.509-2.488
			c-2.488-0.475-3.91-0.829-3.91-0.829c-6.636-1.303-14.576-3.081-23.226-4.978h-0.119c-14.813-3.556-31.402-7.819-45.385-12.562
			c-9.835-3.436-18.368-7.108-24.174-10.782c-0.592-0.355-1.066-0.712-1.659-1.187c-13.864-10.07-30.336-39.695-43.133-71.454
			c-1.778-4.385-3.437-8.769-5.096-13.035c-5.925-15.88-10.665-31.521-13.508-45.03c-1.778-8.057-2.963-15.405-3.2-21.449
			c-0.119-2.132-0.237-4.146-0.119-6.043c0.237-34.364,17.301-39.104,17.301-39.104c0.355-0.119,0.711-0.237,1.185-0.354
			c2.962-0.475,6.044,1.539,9.243,5.45c4.029,4.857,8.295,12.798,12.68,22.396c6.754,15.287,13.864,35.077,20.5,54.748
			c3.673,10.783,7.228,21.566,10.783,31.521c2.015,6.043,4.03,11.731,5.925,16.946c3.673,9.953,6.992,18.011,9.954,23.106
			c1.896,3.318,7.347,7.94,14.575,13.153c12.561,9.125,30.929,20.146,46.926,29.15c6.636,3.793,12.916,7.229,18.13,10.074
			C1101.863,1237.419,1107.433,1240.382,1107.433,1240.382z"/>
		<path style="fill:#F99746;" d="M966.613,1054.148c-22.813-6.289-40.411,11.522-40.411,11.522
			c0.287-34.309,17.365-39.006,17.365-39.006C950.438,1023.82,958.4,1035.719,966.613,1054.148z"/>
		<path style="fill:#233862;" d="M934.028,1759.76h-78.866c0,0-1.89-12.02,2.23-21.139c3.947-8.75,10.129-12.728,8.649-23.314
			c5.011,5.16,13.179,10.938,24.581,9.404c1.396,2.265,9.018,14.386,13.684,17.738
			C909.459,1746.153,932.441,1744.833,934.028,1759.76z"/>
		<path style="fill:#233862;" d="M1103.364,1759.76h-78.866c0,0-2.949-12.578,2.229-21.139c4.583-7.573,2.827-11.888-0.567-18.153
			c3.573,1.462,8.194,2.793,13.283,2.502c3.93-0.227,8.085-2.01,11.729-4.126c3.395,3.87,17.929,20.342,22.471,23.605
			C1078.795,1746.153,1101.777,1744.833,1103.364,1759.76z"/>
		<path style="fill:#FFB27D;" d="M1111.484,1239.109c0,0,6.75-4.402,16.686-7.733c6.209-2.082,14.338-4.341,14.087-2.077
			c-0.252,2.264-13.078,8.301-13.331,9.307C1128.673,1239.612,1111.484,1239.109,1111.484,1239.109z"/>
	</g>
	<g>
		<path style="fill:#F77D48;" d="M1543.039,1539.754c52.795-37.149,100.405-6.66,137.555,46.135s46.774,109.62-6.021,146.77
			c-52.795,37.15-175.988,35.95-201.708-0.601C1452.586,1703.239,1490.243,1576.903,1543.039,1539.754z"/>
		<g>
			<g>
				<path style="fill:#FBBEA3;" d="M1609.275,1551.409c-1.893,1.332-8.617,0.938-8.617,0.938s1.9-6.461,3.793-7.793
					c1.893-1.332,4.507-0.877,5.839,1.016S1611.168,1550.078,1609.275,1551.409z"/>
				<path style="fill:#FBBEA3;" d="M1607.795,1575.424c-1.893,1.331-8.617,0.938-8.617,0.938s1.9-6.462,3.793-7.794
					c1.893-1.332,4.507-0.877,5.839,1.016S1609.688,1574.092,1607.795,1575.424z"/>
				<path style="fill:#FBBEA3;" d="M1633.56,1585.921c-1.894,1.332-8.617,0.938-8.617,0.938s1.9-6.461,3.793-7.793
					c1.894-1.332,4.508-0.878,5.84,1.016C1635.907,1581.975,1635.452,1584.589,1633.56,1585.921z"/>
				<path style="fill:#FBBEA3;" d="M1640.302,1621.621c-1.893,1.332-8.616,0.938-8.616,0.938s1.9-6.462,3.793-7.794
					s4.507-0.877,5.839,1.016C1642.649,1617.675,1642.195,1620.289,1640.302,1621.621z"/>
				<path style="fill:#FBBEA3;" d="M1664.847,1634.059c-1.894,1.332-8.617,0.938-8.617,0.938s1.9-6.462,3.794-7.794
					c1.893-1.332,4.507-0.877,5.839,1.016C1667.194,1630.112,1666.739,1632.727,1664.847,1634.059z"/>
				<path style="fill:#FBBEA3;" d="M1669.835,1663.593c-1.893,1.332-8.616,0.938-8.616,0.938s1.9-6.462,3.793-7.794
					s4.508-0.877,5.84,1.016C1672.184,1659.646,1671.729,1662.261,1669.835,1663.593z"/>
				<path style="fill:#FBBEA3;" d="M1691.875,1672.47c-1.893,1.332-8.617,0.938-8.617,0.938s1.9-6.461,3.794-7.793
					c1.893-1.332,4.507-0.878,5.839,1.016C1694.223,1668.523,1693.768,1671.138,1691.875,1672.47z"/>
			</g>
			<g>
				<path style="fill:#FBBEA3;" d="M1566.387,1565.13c-2.262,1.592-10.296,1.121-10.296,1.121s2.271-7.721,4.532-9.312
					c2.262-1.592,5.386-1.049,6.977,1.213C1569.192,1560.414,1568.649,1563.538,1566.387,1565.13z"/>
				<path style="fill:#FBBEA3;" d="M1564.618,1593.822c-2.262,1.592-10.295,1.122-10.295,1.122s2.271-7.721,4.532-9.313
					s5.385-1.048,6.977,1.214C1567.423,1589.107,1566.88,1592.23,1564.618,1593.822z"/>
				<path style="fill:#FBBEA3;" d="M1595.403,1606.365c-2.262,1.592-10.296,1.122-10.296,1.122s2.271-7.721,4.533-9.313
					c2.262-1.592,5.385-1.048,6.977,1.214C1598.208,1601.65,1597.665,1604.774,1595.403,1606.365z"/>
				<path style="fill:#FBBEA3;" d="M1603.459,1649.021c-2.262,1.592-10.295,1.122-10.295,1.122s2.271-7.721,4.533-9.313
					c2.262-1.592,5.385-1.048,6.977,1.214S1605.721,1647.43,1603.459,1649.021z"/>
				<path style="fill:#FBBEA3;" d="M1632.786,1663.883c-2.262,1.592-10.296,1.121-10.296,1.121s2.271-7.721,4.533-9.312
					c2.262-1.592,5.385-1.049,6.977,1.213S1635.048,1662.291,1632.786,1663.883z"/>
				<path style="fill:#FBBEA3;" d="M1638.747,1699.171c-2.262,1.592-10.296,1.122-10.296,1.122s2.271-7.721,4.533-9.313
					c2.262-1.592,5.385-1.048,6.977,1.214S1641.009,1697.58,1638.747,1699.171z"/>
				<path style="fill:#FBBEA3;" d="M1665.081,1709.778c-2.262,1.592-10.296,1.122-10.296,1.122s2.271-7.721,4.532-9.313
					c2.263-1.592,5.386-1.048,6.978,1.214S1667.343,1708.188,1665.081,1709.778z"/>
			</g>
			<g>
				<path style="fill:#FBBEA3;" d="M1491.225,1663.273c-1.215,0.855-5.535,0.603-5.535,0.603s1.221-4.15,2.437-5.006
					s2.896-0.563,3.751,0.652S1492.441,1662.418,1491.225,1663.273z"/>
				<path style="fill:#FBBEA3;" d="M1490.274,1678.697c-1.216,0.855-5.535,0.604-5.535,0.604s1.221-4.15,2.437-5.006
					c1.216-0.856,2.895-0.564,3.75,0.652C1491.782,1676.162,1491.49,1677.842,1490.274,1678.697z"/>
				<path style="fill:#FBBEA3;" d="M1506.823,1685.44c-1.216,0.855-5.535,0.603-5.535,0.603s1.22-4.15,2.437-5.006
					c1.216-0.855,2.895-0.563,3.75,0.652S1508.039,1684.585,1506.823,1685.44z"/>
				<path style="fill:#FBBEA3;" d="M1511.154,1708.371c-1.216,0.855-5.535,0.603-5.535,0.603s1.22-4.15,2.436-5.006
					s2.896-0.563,3.751,0.652S1512.37,1707.516,1511.154,1708.371z"/>
				<path style="fill:#FBBEA3;" d="M1526.919,1716.359c-1.216,0.855-5.535,0.603-5.535,0.603s1.221-4.15,2.437-5.006
					s2.895-0.563,3.75,0.652S1528.135,1715.504,1526.919,1716.359z"/>
				<path style="fill:#FBBEA3;" d="M1530.124,1735.329c-1.216,0.856-5.535,0.604-5.535,0.604s1.221-4.15,2.437-5.006
					s2.895-0.563,3.751,0.652C1531.632,1732.795,1531.34,1734.474,1530.124,1735.329z"/>
				<path style="fill:#FBBEA3;" d="M1544.28,1741.031c-1.216,0.855-5.535,0.604-5.535,0.604s1.221-4.15,2.437-5.006
					s2.896-0.563,3.751,0.652S1545.496,1740.176,1544.28,1741.031z"/>
			</g>
			<g>
				<path style="fill:#FBBEA3;" d="M1511.769,1632.772c-1.575,1.108-7.171,0.781-7.171,0.781s1.581-5.378,3.157-6.486
					c1.575-1.108,3.751-0.729,4.86,0.846S1513.344,1631.664,1511.769,1632.772z"/>
				<path style="fill:#FBBEA3;" d="M1510.537,1652.759c-1.575,1.108-7.171,0.781-7.171,0.781s1.582-5.378,3.157-6.486
					c1.575-1.108,3.751-0.73,4.859,0.845C1512.491,1649.475,1512.112,1651.65,1510.537,1652.759z"/>
				<path style="fill:#FBBEA3;" d="M1531.979,1661.495c-1.575,1.108-7.171,0.781-7.171,0.781s1.582-5.378,3.157-6.486
					c1.576-1.108,3.751-0.729,4.86,0.846C1533.934,1658.211,1533.555,1660.387,1531.979,1661.495z"/>
				<path style="fill:#FBBEA3;" d="M1537.591,1691.207c-1.576,1.109-7.171,0.781-7.171,0.781s1.582-5.377,3.157-6.486
					c1.575-1.108,3.751-0.729,4.859,0.846C1539.545,1687.923,1539.167,1690.099,1537.591,1691.207z"/>
				<path style="fill:#FBBEA3;" d="M1558.019,1701.559c-1.576,1.108-7.171,0.781-7.171,0.781s1.582-5.378,3.157-6.486
					c1.576-1.108,3.751-0.73,4.86,0.846C1559.973,1698.274,1559.595,1700.45,1558.019,1701.559z"/>
				<path style="fill:#FBBEA3;" d="M1562.171,1726.139c-1.575,1.109-7.171,0.781-7.171,0.781s1.582-5.378,3.157-6.486
					c1.575-1.108,3.751-0.729,4.86,0.846C1564.125,1722.854,1563.747,1725.03,1562.171,1726.139z"/>
				<path style="fill:#FBBEA3;" d="M1580.514,1733.527c-1.575,1.108-7.171,0.781-7.171,0.781s1.582-5.378,3.157-6.486
					c1.575-1.108,3.751-0.73,4.86,0.846C1582.468,1730.243,1582.089,1732.419,1580.514,1733.527z"/>
			</g>
			<g>
				<path style="fill:#FBBEA3;" d="M1534.845,1601.305c-1.917,1.349-8.725,0.95-8.725,0.95s1.924-6.543,3.841-7.892
					c1.917-1.349,4.564-0.889,5.913,1.028C1537.222,1597.309,1536.762,1599.956,1534.845,1601.305z"/>
				<path style="fill:#FBBEA3;" d="M1533.346,1625.62c-1.917,1.349-8.725,0.951-8.725,0.951s1.924-6.543,3.841-7.892
					c1.917-1.35,4.564-0.889,5.913,1.028C1535.723,1621.625,1535.263,1624.271,1533.346,1625.62z"/>
				<path style="fill:#FBBEA3;" d="M1559.434,1636.25c-1.917,1.349-8.725,0.95-8.725,0.95s1.924-6.542,3.841-7.892
					c1.917-1.349,4.564-0.888,5.913,1.029C1561.812,1632.254,1561.351,1634.901,1559.434,1636.25z"/>
				<path style="fill:#FBBEA3;" d="M1566.262,1672.399c-1.917,1.349-8.725,0.95-8.725,0.95s1.924-6.543,3.841-7.892
					c1.917-1.349,4.563-0.888,5.913,1.028C1568.639,1668.403,1568.179,1671.051,1566.262,1672.399z"/>
				<path style="fill:#FBBEA3;" d="M1591.115,1684.994c-1.917,1.348-8.725,0.95-8.725,0.95s1.924-6.543,3.841-7.892
					c1.917-1.35,4.563-0.889,5.913,1.028C1593.493,1680.998,1593.032,1683.645,1591.115,1684.994z"/>
				<path style="fill:#FBBEA3;" d="M1596.167,1714.899c-1.917,1.349-8.725,0.95-8.725,0.95s1.924-6.543,3.841-7.892
					c1.917-1.349,4.564-0.889,5.913,1.028S1598.083,1713.551,1596.167,1714.899z"/>
				<path style="fill:#FBBEA3;" d="M1618.484,1723.889c-1.917,1.349-8.726,0.95-8.726,0.95s1.924-6.543,3.841-7.892
					s4.564-0.889,5.913,1.028S1620.4,1722.54,1618.484,1723.889z"/>
			</g>
		</g>
		<path style="fill:#649B57;" d="M1674.807,1583.364c0,0,40.069-32.024,79.761-15.716c0,0-4.111,4.809-7.061,6.883
			c-2.948,2.075-31.135-12.92-71.564,14.206L1674.807,1583.364z"/>
		<path style="fill:#649B57;" d="M1680.044,1581.872c0,0-11.716-31.121-39.829-39.009c0,0,18.48,18.073,20.045,23.586
			c0,0-7.585-3.26-20.084,3.882c0,0,20.592,4.358,24.719,16.333c4.128,11.975,0.859,34.114,0.859,34.114s16.864-7.941,16.905-16.856
			c0,0,15.563,11.487,24.381,34.403C1707.04,1638.325,1703.25,1603.4,1680.044,1581.872z"/>
	</g>
	<path style="fill:#2E3552;" d="M2981.338,1765.984H299.014c-1.741,0-3.166-1.425-3.166-3.166v-1.371
		c0-1.741,1.424-3.166,3.166-3.166h2682.324c1.74,0,3.166,1.425,3.166,3.166v1.371
		C2984.504,1764.56,2983.078,1765.984,2981.338,1765.984z"/>
	<g>
		<path style="fill:#2A4E96;" d="M1524.706,1699.807c0,31.932-30.668,57.817-68.498,57.817c-37.831,0-68.498-25.886-68.498-57.817
			c0-31.933,30.667-57.818,68.498-57.818C1494.038,1641.988,1524.706,1667.874,1524.706,1699.807z"/>
		<ellipse style="fill:#4673BC;" cx="1483.881" cy="1678.91" rx="17.714" ry="14.952"/>
	</g>
</g>
</svg>
