<?xml version="1.0" encoding="utf-8"?>
<!-- Generator: Adobe Illustrator 27.5.0, SVG Export Plug-In . SVG Version: 6.00 Build 0)  -->
<svg version="1.1" xmlns="http://www.w3.org/2000/svg" xmlns:xlink="http://www.w3.org/1999/xlink" x="0px" y="0px"
	 viewBox="0 0 2500 2500" style="enable-background:new 0 0 2500 2500;" xml:space="preserve">
<g id="Background">
	<rect style="fill:#FFFFFF;" width="2500" height="2500"/>
</g>
<g id="Illustration">
	<g id="Water_contamination_detection_system_1_">
		<circle style="fill:#F2E6DC;" cx="1248.416" cy="1250" r="915"/>
		<g>
			<polygon style="fill:#F7F1EB;" points="937.629,398.101 349.194,926.601 349.194,2045.89 1526.065,2045.89 1526.065,926.601 			
				"/>
			<path style="fill:#D3BBA3;" d="M1526.066,886.094c-0.525,0-1.053-0.186-1.473-0.564L937.629,358.353L350.668,885.53
				c-0.908,0.813-2.302,0.739-3.115-0.168c-0.813-0.905-0.738-2.3,0.168-3.114l588.434-528.5c0.84-0.751,2.109-0.751,2.947,0
				l588.437,528.5c0.906,0.814,0.982,2.208,0.168,3.114C1527.271,885.848,1526.669,886.094,1526.066,886.094z"/>
			<g>
				<rect x="996.85" y="1421.813" style="fill:#E6D0BE;" width="349.999" height="520.8"/>
			</g>
			<g>
				<path style="fill:#FFFFFF;" d="M1574.843,2050.889H355.619c-1.218,0-2.205-0.987-2.205-2.205c0-1.218,0.987-2.205,2.205-2.205
					h1219.224c1.219,0,2.205,0.987,2.205,2.205C1577.048,2049.902,1576.062,2050.889,1574.843,2050.889z"/>
			</g>
			<g>
				<rect x="446.403" y="1421.813" style="fill:#E6D0BE;" width="458.493" height="449.848"/>
			</g>
			<g>
				<rect x="446.403" y="1245.585" style="fill:#E6D0BE;" width="977.01" height="128.916"/>
			</g>
			<polygon style="fill:#E6D0BE;" points="1423.413,1179.472 451.845,1179.472 451.845,922.68 937.757,483.336 1423.413,922.68 			
				"/>
			<g>
				<path style="fill:#FFFFFF;" d="M672.492,1160.333c-1.218,0-2.205-0.987-2.205-2.205V748.45c0-1.218,0.987-2.205,2.205-2.205
					s2.205,0.987,2.205,2.205v409.678C674.696,1159.345,673.709,1160.333,672.492,1160.333z"/>
				<path style="fill:#FFFFFF;" d="M1202.766,1160.333c-1.218,0-2.205-0.987-2.205-2.205V748.45c0-1.218,0.987-2.205,2.205-2.205
					c1.218,0,2.205,0.987,2.205,2.205v409.678C1204.971,1159.345,1203.983,1160.333,1202.766,1160.333z"/>
			</g>
			<g>
				<path style="fill:#FFFFFF;" d="M672.492,1160.333c-1.218,0-2.205-0.987-2.205-2.205V748.45c0-1.218,0.987-2.205,2.205-2.205
					s2.205,0.987,2.205,2.205v409.678C674.696,1159.345,673.709,1160.333,672.492,1160.333z"/>
				<path style="fill:#FFFFFF;" d="M1202.766,1160.333c-1.218,0-2.205-0.987-2.205-2.205V748.45c0-1.218,0.987-2.205,2.205-2.205
					c1.218,0,2.205,0.987,2.205,2.205v409.678C1204.971,1159.345,1203.983,1160.333,1202.766,1160.333z"/>
			</g>
			<g>
				<path style="fill:#FFFFFF;" d="M675.649,1858.874c-1.218,0-2.205-0.987-2.205-2.205v-417.982c0-1.218,0.987-2.205,2.205-2.205
					s2.205,0.987,2.205,2.205v417.982C677.854,1857.887,676.867,1858.874,675.649,1858.874z"/>
			</g>
		</g>
		<g>
			<path style="fill:#40484C;" d="M2166.584,1562.803c0,36.961-29.962,66.923-66.923,66.923h-605.675
				c-36.961,0-66.923-29.963-66.923-66.923V422.313c0-36.961,29.963-66.923,66.923-66.923h605.675
				c36.961,0,66.923,29.963,66.923,66.923V1562.803z"/>
			<path style="fill:#FFFFFF;" d="M1498.138,426.324c-20.109,0-36.411,16.302-36.411,36.411v1073.668
				c0,20.109,16.302,36.411,36.411,36.411h597.37c20.109,0,36.411-16.302,36.411-36.411V462.735
				c0-20.109-16.302-36.411-36.411-36.411H1498.138z"/>
			<path style="fill:#F2E6DC;" d="M1882.839,395.689h-172.034c-1.219,0-2.205-0.987-2.205-2.205c0-1.218,0.986-2.205,2.205-2.205
				h172.034c1.219,0,2.205,0.987,2.205,2.205C1885.044,394.702,1884.058,395.689,1882.839,395.689z"/>
			<rect x="1519.762" y="504.801" style="fill:#F7F1EB;" width="554.123" height="256.736"/>
			<rect x="1519.762" y="807.698" style="fill:#F7F1EB;" width="554.123" height="279.215"/>
			<rect x="1519.762" y="1137.201" style="fill:#F7F1EB;" width="554.123" height="343.201"/>
			<g>
				<g>
					<path style="fill:#FFFFFF;" d="M1859.875,648.053c0,36.423-29.539,65.95-65.978,65.95c-36.439,0-65.978-29.527-65.978-65.95
						c0-36.423,65.099-108.396,65.099-108.396S1859.875,611.63,1859.875,648.053z"/>
					<path style="fill:#363E44;" d="M1799.9,725.208c-37.596,0-68.184-30.573-68.184-68.154c0-36.849,62.986-106.911,65.669-109.876
						c0.413-0.459,1.001-0.721,1.619-0.726c0.605-0.082,1.21,0.252,1.63,0.704c2.754,2.965,67.447,73.031,67.447,109.898
						C1868.082,694.635,1837.496,725.208,1799.9,725.208z M1799.041,551.954c-9.995,11.372-62.915,73.099-62.915,105.099
						c0,35.149,28.609,63.745,63.774,63.745c35.163,0,63.772-28.596,63.772-63.745
						C1863.672,625.049,1809.26,563.271,1799.041,551.954z"/>
				</g>
				<g>
					<path style="fill:#FFFFFF;" d="M1891.649,1254.981c6.168-3.085,12.565-5.227,19.026-6.489l-2.449-34.99
						c-10.928,1.686-21.778,5.064-32.185,10.268c-25.278,12.641-43.53,33.812-53.02,58.294l33.636,9.902
						C1863.381,1276.45,1875.375,1263.12,1891.649,1254.981z"/>
					<path style="fill:#8B865C;" d="M1854.731,1346.528c-4.31-12.14-5.267-24.846-3.257-36.973l-33.636-9.903
						c-4.21,20.404-2.653,42.124,5.525,62.563L1854.731,1346.528z"/>
					<path style="fill:#D87355;" d="M2026.612,1281.068l-31.368,15.687c12.401,34.93-2.938,74.553-36.919,91.547
						c-33.981,16.994-74.885,5.499-95.393-25.376l-31.368,15.688c29.257,48.053,91.166,66.506,142.37,40.898
						C2025.138,1393.904,2047.51,1333.302,2026.612,1281.068z"/>
					<path style="fill:#8B865C;" d="M1928.968,1247.233c22.966,1.267,44.795,13.133,58.075,33.124l31.368-15.688
						c-19.994-32.84-55.236-51.852-91.893-52.426L1928.968,1247.233z"/>
				</g>
				<g>
					<path style="fill:#D87355;" d="M1726.207,1349.085c-2.411,6.462-5.631,12.389-9.499,17.717l25.643,23.932
						c6.847-8.683,12.483-18.55,16.55-29.452c9.879-26.48,8.803-54.412-0.942-78.794l-31.361,15.682
						C1732.257,1314.108,1732.567,1332.038,1726.207,1349.085z"/>
					<path style="fill:#FFFFFF;" d="M1690.818,1256.936c11.429,5.945,20.79,14.589,27.585,24.832l31.361-15.681
						c-10.828-17.799-26.772-32.63-46.688-42.011L1690.818,1256.936z"/>
					<path style="fill:#FFD092;" d="M1609.674,1421.993l12.258-32.86c-32.883-17.105-48.668-56.552-35.389-92.149
						c13.28-35.598,51.044-55.068,87.096-46.456l12.259-32.86c-54.162-15.218-112.038,13.48-132.049,67.12
						C1533.839,1338.427,1558.779,1398.019,1609.674,1421.993z"/>
					<path style="fill:#D3BBA3;" d="M1704.183,1380.193c-17.667,14.727-41.728,20.925-65.072,15.349l-12.259,32.86
						c37.014,10.4,75.76,0.289,102.973-24.278L1704.183,1380.193z"/>
				</g>
				<g>
					<rect x="1554.88" y="911.792" style="fill:#EFBC73;" width="34.085" height="138.379"/>
					<rect x="1609.659" y="994.614" style="fill:#FFD092;" width="34.085" height="55.557"/>
					<rect x="1664.438" y="939.057" style="fill:#EFBC73;" width="34.085" height="111.115"/>
					<rect x="1719.218" y="865.883" style="fill:#E0AA63;" width="34.085" height="184.289"/>
					<rect x="1773.997" y="928.388" style="fill:#EFBC73;" width="34.085" height="121.784"/>
					<g>
						<rect x="1828.776" y="994.614" style="fill:#FFD092;" width="34.085" height="55.557"/>
						<rect x="1883.555" y="939.057" style="fill:#EFBC73;" width="34.085" height="111.115"/>
						<rect x="1938.335" y="886.899" style="fill:#E0AA63;" width="34.085" height="163.273"/>
						<rect x="1993.114" y="973.966" style="fill:#FFD092;" width="34.085" height="76.206"/>
					</g>
				</g>
			</g>
		</g>
		<g>
			<g>
				<g>
					<polygon style="fill:#BC8271;" points="1277.919,1840.755 1313.179,1989.86 1426.613,1989.82 1399.165,1840.712 					"/>
					<path style="fill:#40484C;" d="M1313.164,1984.837l12.541,168.543l313.635-0.112
						c-42.46-65.241-111.514-140.567-213.101-168.466L1313.164,1984.837z"/>
				</g>
				<g>
					<polygon style="fill:#BC8271;" points="929.336,1858.51 960.637,2000.206 1059.574,2000.206 1059.574,1849.459 					"/>
					<path style="fill:#40484C;" d="M959.353,1994.391c0,6.168-39.757,161.915-39.757,161.915h227.632l-89.546-161.915H959.353z"/>
				</g>
				<g>
					<path style="fill:#8B865C;" d="M1036.315,1088.213c0,0-30.978,200.915,215.187,803.019h160.549
						c0,0-126.998-735.166-140.566-827.899L1036.315,1088.213z"/>
					<path style="fill:#8B865C;" d="M899.933,1117.616c0,0-62.241,316.738,21.426,773.616h149.243
						c0,0,26.767-662.789,65.208-762.307L899.933,1117.616z"/>
					<path style="fill:#363E44;" d="M1102.806,1411.077c-0.038,0-0.075-0.001-0.114-0.003c-1.216-0.061-2.152-1.097-2.09-2.314
						l7.081-139.488l50.532-17.411c1.15-0.396,2.406,0.214,2.802,1.366c0.397,1.151-0.214,2.406-1.366,2.802l-47.716,16.443
						l-6.93,136.513C1104.946,1410.162,1103.972,1411.077,1102.806,1411.077z"/>
				</g>
			</g>
			<g>
				<path style="fill:#BC8271;" d="M835.277,1017.637l6.058,2.299l109.337-151.025L837.864,768.228L782.599,889.64
					C759.897,939.516,784.049,998.201,835.277,1017.637z"/>
				<g>
					<g>
						<path style="fill:#BC8271;" d="M1289.098,747.397c0,0,58.439,53.772,90.605,18.963c33.397-36.142,72.395-77.779,92.618-97.359
							c41.695-40.367,109.13-93.895,116.495-84.363c4.195,5.429-3.493,14.632-25.677,37.861c2.296-0.053,9.288,1.508,12.354,7.182
							c4.536,8.397-1.241,13.925-1.517,14.652c0.777-0.081,9.677-0.529,13.665,4.578c4.492,5.752,3.557,11.877,0.804,16.9
							c1.934-0.141,10.233,0.619,13.816,5.716c4.658,6.626,0.955,14.791-3.917,19.371c-8.938,8.401-33.932,30.747-45.641,44.254
							c-14.566,16.802-71.672,86.626-111.713,135.721c-25.057,30.723-65.288,44.678-103.984,36.077l-46.173-10.263L1289.098,747.397
							z"/>
						<path style="fill:#363E44;" d="M1517.356,715.422c-0.332,0-0.67-0.075-0.986-0.234c-1.089-0.546-1.529-1.871-0.982-2.96
							c5.488-10.945,5.439-20.971,5.4-29.025c-0.043-8.465-0.078-15.776,7.346-18.659c4.197-1.629,8.499-5.778,12.445-11.997
							c1.049-1.654,0.146-3.078-0.157-3.475c-0.633-0.833-1.841-1.56-3.372-1.102l-36.108,10.915
							c-1.156,0.354-2.394-0.307-2.747-1.472c-0.353-1.166,0.306-2.396,1.473-2.748l36.108-10.915
							c3.034-0.921,6.24,0.125,8.158,2.655c1.908,2.512,2.054,5.849,0.37,8.505c-4.519,7.122-9.422,11.745-14.573,13.746
							c-4.403,1.71-4.578,5.922-4.535,14.527c0.039,8.075,0.093,19.135-5.87,31.024
							C1518.943,714.976,1518.164,715.422,1517.356,715.422z"/>
						<path style="fill:#363E44;" d="M1578.032,702.215c-0.586,0-1.169-0.232-1.602-0.691c-5.824-6.163-7.213-15.068-4.136-22.537
							l-0.153,0.108c-5.628,3.975-13.285,3.368-18.211-1.452c-2.773-2.713-4.296-6.344-4.289-10.224
							c0.006-3.88,1.544-7.506,4.326-10.21l2.108-2.047c-3.402-0.042-6.765-1.526-9.056-4.335
							c-3.813-4.675-3.505-11.456,0.713-15.77l9.661-9.875c0.855-0.869,2.25-0.887,3.118-0.034c0.87,0.852,0.885,2.248,0.034,3.118
							l-9.661,9.875c-2.648,2.709-2.84,6.964-0.446,9.9c2.541,3.116,7.181,3.633,10.341,1.155l7.502-5.875
							c0.915-0.722,2.25-0.599,3.019,0.285c0.771,0.883,0.717,2.215-0.123,3.032l-14.135,13.734
							c-1.923,1.868-2.986,4.374-2.991,7.056c-0.004,2.681,1.049,5.189,2.963,7.063c3.402,3.328,8.694,3.753,12.583,1.004
							l12.088-8.545c0.924-0.652,2.185-0.502,2.928,0.345c0.745,0.846,0.73,2.118-0.032,2.948l-5.099,5.544
							c-5.891,6.408-5.824,16.383,0.153,22.71c0.838,0.885,0.797,2.28-0.088,3.117
							C1579.119,702.016,1578.577,702.215,1578.032,702.215z"/>
					</g>
				</g>
				<path style="fill:#FFFFFF;" d="M893.401,903.629l-111.073-46.87c0,0,25.216-69.394,51.331-110.274
					c27.657-43.291,65.948-61.542,117.013-67.067c72.525-7.847,203.382,3.038,296.773,33.259
					c118.015,38.19,123.221,41.662,123.221,41.662l-60.743,161.44l-39.917-10.416l48.729,312.963l-476.434,17.577
					C842.302,1235.905,879.516,959.178,893.401,903.629z"/>
				<g>
					<path style="fill:#FFD092;" d="M1241.408,1016.464h-139.746l73.494-206.397h138.089c11.229,0,19.072,11.122,15.305,21.703
						l-58.594,164.553C1265.656,1008.398,1254.225,1016.464,1241.408,1016.464z"/>
					<polygon style="fill:#E0AA63;" points="1289.316,825.939 1198.048,825.939 1206.426,800.493 1299.429,800.493 					"/>
					<path style="fill:#363E44;" d="M1198.853,827.718c-0.2,0-0.404-0.028-0.606-0.086c-1.172-0.334-1.85-1.555-1.515-2.725
						l7.398-25.902h95.38c1.219,0,2.205,0.987,2.205,2.205s-0.986,2.205-2.205,2.205h-92.053l-6.485,22.703
						C1200.694,827.086,1199.812,827.718,1198.853,827.718z"/>
					<path style="fill:#363E44;" d="M1278.687,799.944c-0.202,0-0.405-0.028-0.607-0.086c-1.171-0.334-1.849-1.555-1.516-2.725
						l6.141-21.493h-44.009l-6.485,22.703c-0.334,1.171-1.548,1.854-2.725,1.515c-1.171-0.334-1.849-1.555-1.515-2.725l7.398-25.902
						h53.179l-7.743,27.112C1280.528,799.312,1279.645,799.943,1278.687,799.944z"/>
					<path style="fill:#363E44;" d="M1256.992,796.471c-4.567,0-8.281-3.714-8.281-8.28c0-4.566,3.714-8.281,8.281-8.281
						c4.565,0,8.279,3.715,8.279,8.281C1265.271,792.757,1261.556,796.471,1256.992,796.471z M1256.992,784.32
						c-2.134,0-3.871,1.737-3.871,3.871c0,2.134,1.738,3.87,3.871,3.87c2.134,0,3.869-1.736,3.869-3.87
						C1260.861,786.056,1259.125,784.32,1256.992,784.32z"/>
				</g>
				<g>
					<path style="fill:#BC8271;" d="M863.179,903.645c55.124,3.688,185.367,5.944,198.072,6.67
						c23.75,1.359,151.02,11.957,151.482,30.492c0.221,8.857-24.39,7.923-32.701,7.366c6.49,3.76,32.978,15.501,30.642,25.154
						c-2.744,11.34-36.448,2.184-37.063,2.372c6.978,3.15,35.282,14.572,33.813,21.877c-1.912,9.504-31.43,6.776-40.229,5.551
						c0.755,1.33,29.198,8.256,27.401,19.685c-1.32,8.391-28.397,5.847-40.146,4.778c-21.102-1.19-267.278-1.754-313.016-7.701
						C823.531,1017.56,838.963,920.912,863.179,903.645z"/>
					<path style="fill:#363E44;" d="M981.907,909.835c-0.024,0-0.049,0-0.073-0.001c-28.06-0.919-101.19-4.176-118.955-5.168
						c-1.215-0.068-2.147-1.109-2.079-2.324c0.068-1.218,1.121-2.149,2.324-2.079c17.748,0.991,90.815,4.245,118.854,5.163
						c1.218,0.04,2.172,1.059,2.132,2.276C984.071,908.895,983.091,909.835,981.907,909.835z"/>
					<g>
						<path style="fill:#363E44;" d="M1180.375,949.515c-0.291,0-0.587-0.058-0.87-0.181c-4.486-1.93-9.138-3.562-13.826-4.852
							c-8.434-2.322-17.18-3.598-25.995-3.794c-1.218-0.027-2.183-1.036-2.155-2.252c0.026-1.22,1.093-2.254,2.252-2.155
							c9.179,0.203,18.286,1.532,27.068,3.949c4.882,1.344,9.727,3.044,14.398,5.055c1.119,0.481,1.635,1.777,1.154,2.896
							C1182.043,949.016,1181.229,949.515,1180.375,949.515z"/>
						<path style="fill:#363E44;" d="M1174.123,977.322c-0.214,0-0.433-0.032-0.648-0.098c-0.979-0.3-1.98-0.593-3-0.873
							c-8.432-2.32-17.178-3.597-25.996-3.794c-1.218-0.027-2.182-1.036-2.154-2.253c0.026-1.218,0.995-2.225,2.253-2.154
							c9.179,0.204,18.286,1.533,27.066,3.949c1.064,0.293,2.106,0.596,3.125,0.91c1.164,0.357,1.818,1.591,1.461,2.755
							C1175.938,976.711,1175.064,977.322,1174.123,977.322z"/>
						<path style="fill:#363E44;" d="M1166.64,1005.043c-0.132,0-0.268-0.012-0.404-0.037c-5.617-1.039-11.385-1.631-17.141-1.76
							c-1.217-0.027-2.182-1.036-2.154-2.253c0.026-1.218,0.999-2.23,2.253-2.154c5.991,0.133,11.995,0.749,17.845,1.831
							c1.197,0.222,1.988,1.372,1.767,2.57C1168.609,1004.301,1167.684,1005.043,1166.64,1005.043z"/>
					</g>
				</g>
			</g>
			<g>
				<path style="fill:#BC8271;" d="M1150.542,660.374c-14.084,11.575-57.975-14.066-57.975-14.066l-27.49-48.443
					c-1.801-25.586,17.475-47.788,43.055-49.59c25.581-1.802,47.777,17.479,49.579,43.065
					C1157.711,591.341,1164.887,648.584,1150.542,660.374z"/>
				<path style="fill:#BC8271;" d="M1104.199,721.516l3.63-0.256c16.715-1.177,29.31-15.681,28.134-32.396l-8.035-114.122
					l-64.161,4.519l8.034,114.12C1072.979,710.097,1087.484,722.693,1104.199,721.516z"/>
				<path style="fill:#BC8271;" d="M1153.246,603.897c0,0,13.95,12.699,13.512,16.342c-0.523,4.349-14.81,7.985-14.81,7.985
					S1153.594,603.906,1153.246,603.897z"/>
				<g>
					<path style="fill:#FFFFFF;" d="M1111.307,604.859c0,0,7.46-4.718,16.808-5.376c1.989-0.14-0.642,16.042-2.594,15.274
						C1116.942,611.379,1111.307,604.859,1111.307,604.859z"/>
					<g>
						<defs>
							<path id="SVGID_1_" d="M1111.307,604.859c0,0,10.973-6.939,22.977-5.16c12.004,1.779,20.494,11.602,20.494,11.602
								s-10.973,6.939-22.977,5.16C1119.797,614.682,1111.307,604.859,1111.307,604.859z"/>
						</defs>
						<clipPath id="SVGID_00000160150716354963410650000009940165934177987471_">
							<use xlink:href="#SVGID_1_"  style="overflow:visible;"/>
						</clipPath>
						<path style="clip-path:url(#SVGID_00000160150716354963410650000009940165934177987471_);fill:#363E44;" d="M1128.483,599.046
							c5.747-6.619,15.77-7.325,22.388-1.577c6.618,5.748,7.323,15.774,1.577,22.393c-5.747,6.619-15.77,7.325-22.388,1.577
							C1123.441,615.691,1122.735,605.665,1128.483,599.046z"/>
					</g>
				</g>
				<path style="fill:#363E44;" d="M1094.248,604.475c0,0,10.814,22.905,35.759,22.463s29.465-1.204,29.465-1.204l4.87,23.418
					c2.148,10.328-5.535,20.096-16.076,20.44l-17.844,0.582c-18.052,0.589-33.781-12.208-36.881-30.005l-3.419-19.624l-23.924-6.762
					c0,0-39.514-15.677-26.942-43.563c7.959-17.653,24.116-12.217,24.116-12.217l48.861-47.98
					c10.953-9.741,22.365-1.862,33.431,7.75c0,0,23.155,15.393,12.743,24.678l-7.582,6.762l7.853-2.155
					c6.346-1.741,14.708,11.36,14.708,11.36c3.4,12.399-2.662,21.592-15.153,24.629c-6.801,1.654-14.667-0.807-21.524-2.202
					C1112.705,575.962,1088.85,583.818,1094.248,604.475z"/>
				<path style="fill:#BC8271;" d="M1094.79,613.355c3.408,7.874,0.7,16.626-6.048,19.547c-6.748,2.922-14.98-1.093-18.388-8.968
					c-3.408-7.874-0.7-16.626,6.048-19.547C1083.15,601.466,1091.382,605.481,1094.79,613.355z"/>
				<path style="fill:#BC8271;" d="M1140.586,639.272c-1.446,0-2.894-0.357-4.204-1.082c-2.88-1.593-4.639-4.759-4.482-8.063
					c0.06-1.216,1.116-2.129,2.307-2.098c1.217,0.058,2.155,1.092,2.098,2.307c-0.079,1.641,0.79,3.208,2.211,3.995
					c1.478,0.817,3.312,0.686,4.678-0.335c0.974-0.73,2.357-0.529,3.085,0.448c0.729,0.975,0.529,2.357-0.448,3.086
					C1144.287,638.684,1142.439,639.272,1140.586,639.272z"/>
				<path style="fill:#363E44;" d="M1087.872,628.166c-0.432,0-0.869-0.127-1.251-0.391l-6.908-4.772
					c-1.002-0.692-1.253-2.065-0.561-3.067c0.689-1.001,2.065-1.253,3.067-0.561l6.908,4.772c1.002,0.692,1.253,2.065,0.561,3.067
					C1089.261,627.833,1088.572,628.166,1087.872,628.166z"/>
			</g>
		</g>
		<g>
			<path style="fill:#8B865C;" d="M2094.985,1945.963h-628.746c-1.219,0-2.205-0.987-2.205-2.205v-168.742
				c0-1.218,0.986-2.205,2.205-2.205h628.746c1.219,0,2.205,0.987,2.205,2.205v168.742
				C2097.189,1944.976,2096.203,1945.963,2094.985,1945.963z M1468.443,1941.553h624.336v-164.332h-624.336V1941.553z"/>
			<g>
				<path style="fill:#D3BBA3;" d="M2017.261,1726.148c-26.814-8.498-29.988-49.93-52.354-49.34
					c-55.38,1.461-80.524,182.191-122.525,179.805c-34.672-1.97-40.348-126.425-80.5-130.465
					c-42.857-4.312-73.076,133.787-119.362,130.465c-40.643-2.917-39.022-110.953-111.034-147.12
					c-12.099-6.077-24.777-9.365-37.49-10.668V1916h573.229v-204.47C2045.593,1727.069,2029.492,1730.024,2017.261,1726.148z"/>
			</g>
		</g>
		<g>
			<g>
				<g>
					<path style="fill:#F2E6DC;" d="M407.302,2056.294c-35.594-49.65-49.722-110.19-39.783-170.467
						c9.939-60.276,42.757-113.075,92.407-148.669c49.651-35.594,110.19-49.722,170.467-39.783
						c60.277,9.939,113.075,42.757,148.669,92.407c35.594,49.65,49.723,110.19,39.783,170.467
						c-9.939,60.277-42.757,113.075-92.407,148.669c-49.65,35.594-110.189,49.723-170.466,39.783S442.896,2105.944,407.302,2056.294
						z M438.777,1897.578c-14.039,85.139,43.805,165.827,128.944,179.866c85.139,14.039,165.826-43.805,179.865-128.944
						c14.039-85.139-43.805-165.826-128.944-179.866C533.504,1754.594,452.817,1812.439,438.777,1897.578z"/>
					<path style="fill:#FFFFFF;" d="M414.639,2051.034c-34.189-47.69-47.76-105.84-38.212-163.738
						c9.547-57.898,41.069-108.612,88.759-142.801c47.691-34.189,105.84-47.76,163.738-38.213
						c57.897,9.547,108.612,41.069,142.8,88.76c34.189,47.691,47.76,105.84,38.213,163.738
						c-9.547,57.898-41.069,108.612-88.76,142.801c-47.69,34.189-105.84,47.76-163.738,38.213
						C499.542,2130.247,448.828,2098.725,414.639,2051.034z M429.87,1896.109c-14.849,90.051,46.332,175.393,136.383,190.242
						c90.051,14.849,175.392-46.332,190.242-136.383c14.849-90.051-46.332-175.393-136.382-190.242
						C530.061,1744.877,444.719,1806.058,429.87,1896.109z"/>
					<g>
						<path style="fill:#8B865C;" d="M577.482,1758.258c-68.753,6.565-127.952,56.031-144.972,125.019l-53.562-8.832
							c11.843-52.529,42.112-98.316,86.238-129.949c33.267-23.849,71.625-37.651,111.435-40.586L577.482,1758.258z"/>
						<path style="fill:#E6D0BE;" d="M428.25,1909.108c-7.251,85.126,52.298,163.11,138.003,177.242
							c44.996,7.42,88.816-4.144,123.254-28.806l35.048,41.553c-1.119,0.835-2.239,1.668-3.377,2.483
							c-47.69,34.189-105.84,47.76-163.738,38.213c-57.898-9.547-108.612-41.069-142.801-88.76
							c-31.634-44.126-45.6-97.208-39.951-150.758L428.25,1909.108z"/>
						<path style="fill:#D3BBA3;" d="M700.566,1797.137c-22.172-18.974-49.619-32.327-80.454-37.411
							c-5.507-0.908-10.997-1.528-16.454-1.878l-0.86-54.304c8.69,0.398,17.411,1.301,26.126,2.738
							c41.558,6.853,79.414,25.029,110.116,52.379L700.566,1797.137z"/>
						<path style="fill:#EFBC73;" d="M771.725,1795.043c34.189,47.691,47.76,105.84,38.213,163.738
							c-7.884,47.811-30.765,90.712-65.349,123.466l-35.066-41.575c24.033-23.707,41.071-54.922,46.972-90.703
							c8.238-49.959-6.935-98.462-37.446-134.289l38.461-38.463C762.513,1782.877,767.263,1788.818,771.725,1795.043z"/>
					</g>
				</g>
			</g>
		</g>
		<g>
			<g>
				<path style="fill:#E6D0BE;" d="M440.472,664.687c-0.075,0-0.152-0.003-0.228-0.012c-1.211-0.125-2.092-1.208-1.967-2.419
					l21.682-210.234c0.081-0.784,0.573-1.464,1.292-1.786l192.91-86.341c1.11-0.501,2.416,0,2.913,1.111
					c0.497,1.112,0,2.416-1.111,2.913L464.215,453.74l-21.552,208.968C442.547,663.843,441.589,664.687,440.472,664.687z"/>
				
					<ellipse transform="matrix(0.7071 -0.7071 0.7071 0.7071 -184.4258 459.2509)" style="fill:#D3BBA3;" cx="462.152" cy="452.247" rx="74.96" ry="74.96"/>
				
					<ellipse transform="matrix(0.8374 -0.5467 0.5467 0.8374 -93.5621 417.834)" style="fill:#E6D0BE;" cx="655.397" cy="366.15" rx="29.403" ry="29.403"/>
				
					<ellipse transform="matrix(0.7071 -0.7071 0.7071 0.7071 -339.5081 505.8042)" style="fill:#E6D0BE;" cx="440.806" cy="662.725" rx="60.391" ry="60.391"/>
			</g>
		</g>
	</g>
</g>
</svg>
