<?xml version="1.0" encoding="UTF-8"?>
<svg version="1.1" xmlns="http://www.w3.org/2000/svg" width="512" height="512">
<path d="M0 0 C1.61406023 -0.00299646 3.22811975 -0.00640011 4.84217834 -0.01017761 C9.20608646 -0.01897327 13.56997493 -0.02135388 17.93389106 -0.0219934 C20.66697182 -0.02270654 23.40004767 -0.02484587 26.13312721 -0.02749062 C35.68706196 -0.0367301 45.24098281 -0.04082734 54.79492188 -0.04003906 C63.66930222 -0.03943898 72.54362163 -0.04998076 81.41798657 -0.06578273 C89.06248784 -0.07890465 96.70696931 -0.084221 104.35148174 -0.08358365 C108.90584351 -0.08332999 113.46015112 -0.08610793 118.01450157 -0.0967617 C122.30325192 -0.10652108 126.59189718 -0.10646878 130.88065147 -0.09924507 C132.44379838 -0.09820883 134.0069521 -0.10050413 135.57008743 -0.10660553 C160.63939696 -0.19802516 181.82942523 4.78034347 200.5246582 22.57885742 C210.93693322 33.5417816 217.25453366 47.22209563 217.26855469 62.39379883 C217.2768782 63.1753685 217.28520172 63.95693817 217.29377747 64.76219177 C217.3176756 67.31962194 217.32662147 69.87679657 217.33325195 72.43432617 C217.34222867 74.22455923 217.3513507 76.01479157 217.36061096 77.80502319 C217.37704498 81.5454083 217.38479173 85.28570444 217.38769531 89.02612305 C217.39309518 93.81234258 217.43086482 98.59772464 217.47643948 103.38370705 C217.50620431 107.07609104 217.51341863 110.76827231 217.51442146 114.46076584 C217.5186194 116.22539511 217.53103663 117.99002522 217.55193901 119.75453568 C217.57886285 122.22215767 217.57402808 124.68782264 217.56152344 127.15551758 C217.58377487 128.24042229 217.58377487 128.24042229 217.60647583 129.34724426 C217.52494954 135.01048354 215.84833112 137.32358503 211.9621582 141.14526367 C208.94990225 142.41303052 206.20079755 142.49307529 202.9621582 142.14526367 C198.86870513 140.13575035 196.54787937 138.40983159 194.9621582 134.14526367 C194.70387268 130.88424683 194.70387268 130.88424683 194.69091797 126.96508789 C194.68307785 125.89102943 194.68307785 125.89102943 194.67507935 124.79527283 C194.66485379 123.2429714 194.65906146 121.69063583 194.65719795 120.13830185 C194.65352505 117.6735118 194.63677028 115.20912083 194.61643982 112.74441528 C194.56113775 105.73748234 194.53045989 98.73048944 194.50585938 91.72338867 C194.48989028 87.43276127 194.4595678 83.14241393 194.42109489 78.85193253 C194.40951966 77.22465131 194.4035152 75.59731978 194.40341377 73.96999741 C194.40216316 59.23631862 192.47244486 48.74941751 182.44262695 37.43041992 C173.26235643 28.66849084 159.90965706 23.91074302 147.40596008 23.87783813 C146.68959182 23.87330702 145.97322357 23.86877591 145.23514718 23.86410749 C142.85803201 23.85154594 140.48114838 23.85307847 138.10400391 23.85473633 C136.38994557 23.84874583 134.67588991 23.84193908 132.96183777 23.8343811 C128.32107624 23.81676486 123.68038854 23.81202751 119.0395968 23.81074953 C116.13482608 23.80932464 113.23007394 23.80504861 110.32530785 23.7997551 C100.17600699 23.78126775 90.02675855 23.77308267 79.87744141 23.7746582 C70.44233903 23.77585854 61.0074658 23.75477395 51.57242137 23.72317088 C43.45151875 23.69694668 35.33069066 23.68629351 27.20974606 23.68756902 C22.36861841 23.68807694 17.52769444 23.68248842 12.68660927 23.66121292 C8.12856749 23.64172726 3.5709215 23.64177605 -0.98713493 23.65624619 C-2.65068394 23.65832279 -4.3142584 23.65370267 -5.97776413 23.64152527 C-20.1796614 23.54437845 -32.20680224 25.82591077 -44.0378418 34.14526367 C-44.68495117 34.59643555 -45.33206055 35.04760742 -45.9987793 35.51245117 C-53.94130682 41.65143533 -57.85784727 50.56602041 -60.0378418 60.14526367 C-60.43647474 64.0306831 -60.44806892 67.87962855 -60.42552185 71.78305054 C-60.43090739 72.914272 -60.43629293 74.04549346 -60.44184166 75.21099436 C-60.45608421 78.9800495 -60.44902643 82.74875159 -60.44189453 86.51782227 C-60.44595868 89.2288656 -60.454465 91.93989122 -60.46269226 94.65092468 C-60.47984205 101.23763938 -60.48072821 107.82425853 -60.47547936 114.41098975 C-60.47142916 119.76773289 -60.47289128 125.12444791 -60.47822762 130.48118973 C-60.47935025 131.62712296 -60.47935025 131.62712296 -60.48049556 132.79620636 C-60.48202712 134.34845125 -60.48356547 135.90069614 -60.48511053 137.45294102 C-60.49882183 151.9924042 -60.4934076 166.53181349 -60.48192532 181.07127543 C-60.47199511 194.35453164 -60.48493234 207.6376485 -60.50885951 220.92088322 C-60.53327872 234.58086213 -60.54285141 248.24077622 -60.53620678 261.90077651 C-60.53272073 269.56152056 -60.53490589 277.2221575 -60.55245781 284.88288498 C-60.56721519 291.40445574 -60.56776932 297.92584397 -60.5503869 304.44741128 C-60.54190308 307.77059367 -60.54184971 311.09318437 -60.55503845 314.41639137 C-60.56827795 318.02906836 -60.55667314 321.64086955 -60.53904724 325.25350952 C-60.54865225 326.2895269 -60.55825725 327.32554429 -60.56815332 328.39295614 C-60.44478586 340.74475039 -56.50385164 350.38878854 -48.0378418 359.23510742 C-34.71390307 372.01181295 -18.04487984 373.58636023 -0.47003555 373.49482346 C2.44802441 373.48093377 5.36541598 373.48760857 8.28347778 373.49966431 C16.57029924 373.53043157 24.85695579 373.52567868 33.14379883 373.50561523 C38.23471216 373.49469657 43.32511591 373.50787822 48.4159584 373.53551102 C50.34801035 373.54094243 52.28011357 373.53691108 54.21212387 373.52311325 C56.90915486 373.5040538 59.60451134 373.51546608 62.30151367 373.53344727 C63.09330521 373.52010849 63.88509674 373.50676971 64.70088196 373.49302673 C70.43922296 373.57798104 72.95069368 375.02950058 76.9621582 379.14526367 C78.55904861 382.33904449 78.33564777 385.67047683 77.9621582 389.14526367 C76.76426079 391.90042773 75.84255232 393.51752785 73.39886475 395.25991821 C69.73158624 396.5923759 66.07827017 396.43999849 62.22485352 396.43579102 C61.34288803 396.44250824 60.46092255 396.44922546 59.55223083 396.45614624 C56.63152438 396.47516342 53.71104778 396.47905395 50.7902832 396.48120117 C48.74924629 396.48763233 46.70821029 396.49436093 44.66717529 396.50137329 C40.37990183 396.51335947 36.09270896 396.51705332 31.80541992 396.51586914 C26.35209376 396.51566721 20.89929614 396.54283252 15.44609451 396.57741356 C11.2231619 396.59983782 7.00035265 396.60370177 2.77736664 396.60264969 C0.76982574 396.60498763 -1.23771952 396.6137074 -3.24520111 396.62931442 C-27.58350487 396.80063075 -48.21656018 391.36591335 -66.3503418 374.45776367 C-78.07788563 362.13907535 -83.68664158 346.66129574 -83.54577637 329.78053284 C-83.55201633 328.60732371 -83.55825629 327.43411458 -83.56468534 326.22535366 C-83.57776283 323.00929091 -83.57321601 319.79384527 -83.56074047 316.5777992 C-83.55161737 313.09371521 -83.5656954 309.60970895 -83.57666016 306.12564087 C-83.59437379 299.3160487 -83.59063737 292.50663367 -83.57900959 285.69703478 C-83.56994645 280.15826279 -83.56876367 274.61954016 -83.57310486 269.08076286 C-83.57402426 267.89467508 -83.57402426 267.89467508 -83.57496223 266.68462593 C-83.57624124 265.0778671 -83.57753809 263.47110828 -83.57885259 261.86434948 C-83.59023762 246.825009 -83.57717778 231.78576632 -83.55565113 216.74644189 C-83.5377855 203.86655684 -83.54088385 190.98681604 -83.55932617 178.10693359 C-83.5807757 163.12001373 -83.58913554 148.13317944 -83.57687712 133.14624637 C-83.57560304 131.54535768 -83.57434555 129.94446897 -83.57310486 128.34358025 C-83.57248776 127.55608541 -83.57187065 126.76859057 -83.57123485 125.95723226 C-83.56779391 120.43125576 -83.57358314 114.90533394 -83.58302307 109.37936592 C-83.5942901 102.63613535 -83.59110505 95.89309081 -83.5699001 89.14988131 C-83.55945188 85.71512562 -83.55515984 82.28067907 -83.5684967 78.84592628 C-83.63702986 55.5828313 -81.37541298 38.18713704 -64.63549805 20.61401367 C-46.51576033 3.39345091 -23.97311861 -0.008911 0 0 Z " fill="#000000" transform="translate(155.037841796875,40.854736328125)"/>
<path d="M0 0 C0.7321875 0.40605469 1.464375 0.81210937 2.21875 1.23046875 C3.64492624 2.02881741 5.0619453 2.84377176 6.46875 3.67578125 C9.84294964 5.56403528 11.89953909 6.43105307 15.83203125 6.484375 C20.34520217 5.15082505 24.03650654 3.0865509 28.0625 0.6875 C45.77406778 -9.48292717 62.70811321 -14.39977838 83.20703125 -10.91015625 C97.47974954 -6.96526496 108.26443629 3.06350309 115.78515625 15.546875 C125.54676404 33.2952528 128.60922548 52.76234366 128.625 72.75 C128.62567474 73.51382996 128.62634949 74.27765991 128.62704468 75.06463623 C128.6110363 86.45572159 128.19616642 97.34622071 125.375 108.4375 C125.20871094 109.09733887 125.04242188 109.75717773 124.87109375 110.43701172 C120.90625214 125.68329618 114.41600369 140.23078964 104.375 152.4375 C103.73820313 153.23671875 103.10140625 154.0359375 102.4453125 154.859375 C91.34559396 168.1433755 75.29433904 175.85776615 58.18457031 177.66943359 C45.18917999 178.58043287 32.19364635 176.52945857 20.0546875 171.796875 C13.95731554 169.54434268 9.54031831 171.34732646 3.625 173.375 C-14.90498952 179.65828868 -34.88120668 179.65643274 -52.75 171.3125 C-73.48442859 160.35715675 -86.80461819 140.62216761 -93.8605957 118.59375 C-94.47654191 116.54849597 -95.05809091 114.49687436 -95.625 112.4375 C-95.82399902 111.7264209 -96.02299805 111.0153418 -96.22802734 110.28271484 C-102.34272401 87.31128682 -102.44529021 59.21229904 -95.625 36.4375 C-95.43244629 35.78072266 -95.23989258 35.12394531 -95.04150391 34.44726562 C-90.04347519 17.92913562 -81.03013472 3.28527359 -66.25 -6.16015625 C-44.51691382 -17.77054009 -20.21413141 -11.29555659 0 0 Z M-62.19921875 19.53515625 C-77.99146529 38.42990533 -79.29621139 65.54332093 -77.42285156 88.96484375 C-75.01643812 109.92334267 -66.90762722 132.73619227 -50.125 146.3125 C-40.20201128 153.5338531 -29.9379561 156.64934623 -17.625 155.4375 C-9.45464082 154.09786287 -1.66561245 152.07268743 5.875 148.625 C11.18380469 146.2951849 14.80929339 145.71634031 20.375 147.4375 C23.32277402 148.61829646 26.22517161 149.88390166 29.1328125 151.16015625 C42.04371534 156.24674086 55.31460547 157.26965191 68.375 152.4375 C83.77222913 145.6247876 92.99259216 132.28026168 99.09765625 117.04296875 C101.26473184 110.92611623 102.95471798 104.76731456 104.375 98.4375 C104.7153125 96.93896484 104.7153125 96.93896484 105.0625 95.41015625 C109.6355455 71.24288109 107.09842714 43.52954327 93.19921875 22.81640625 C88.37184103 16.52117492 82.23706503 12.08576224 74.375 10.4375 C58.05232982 8.89985716 44.61775542 16.69399669 31.1640625 24.921875 C23.2819661 29.20514307 14.89344167 30.36592825 6.17578125 28.359375 C-1.67011426 25.77690451 -8.95288579 21.53251662 -15.9375 17.1875 C-30.82373871 8.02109685 -49.15837369 7.02162374 -62.19921875 19.53515625 Z " fill="#000000" transform="translate(354.625,304.5625)"/>
<path d="M0 0 C0.90685547 -0.020625 1.81371094 -0.04125 2.74804688 -0.0625 C8.426324 -0.09544142 12.4534452 0.45055715 17.4375 3.25 C20.34612116 7.48072168 20.70919663 10.21524142 19.9375 15.25 C14.95745494 37.21019868 5.22208319 57.85200136 -14.20703125 70.40234375 C-23.76807051 75.66703708 -32.76615438 76.88611856 -43.5625 76.25 C-43.53542969 77.18328125 -43.50835937 78.1165625 -43.48046875 79.078125 C-43.57562594 82.75753651 -44.37609496 84.33479329 -46.5625 87.25 C-50.81634923 90.08589949 -54.57118661 89.99949434 -59.5625 89.25 C-63.33513587 86.813506 -64.67962888 84.5706422 -65.625 80.3125 C-65.76808594 79.53132813 -65.91117187 78.75015625 -66.05859375 77.9453125 C-69.97344917 57.00538817 -80.10310361 39.40402473 -96.12109375 25.46484375 C-99.34622316 22.53900635 -99.50760618 21.90872584 -99.875 17.5 C-99.83516563 13.1261865 -98.36877251 10.6340345 -95.5625 7.25 C-91.74896216 5.34323108 -87.69773024 5.53314777 -83.5625 6.25 C-80.11486581 8.13002059 -77.39773337 10.5520405 -74.5625 13.25 C-73.92183594 13.83652344 -73.28117187 14.42304688 -72.62109375 15.02734375 C-68.6985562 18.76349723 -65.58529719 22.76160417 -62.5625 27.25 C-62.10101563 26.60933594 -61.63953125 25.96867187 -61.1640625 25.30859375 C-56.32650676 18.89357419 -51.44997579 14.36980914 -44.5625 10.25 C-43.80453125 9.78851563 -43.0465625 9.32703125 -42.265625 8.8515625 C-29.50577973 1.7865475 -14.34657321 0.0819219 0 0 Z M-40.44140625 35.23828125 C-44.93455856 40.98735083 -46.70781029 45.98513745 -47.5625 53.25 C-40.49334146 55.20394719 -34.35790891 54.8512701 -27.7578125 51.57421875 C-17.65368705 45.47938151 -11.07140292 35.98358305 -6.5625 25.25 C-6.5625 24.59 -6.5625 23.93 -6.5625 23.25 C-18.52654357 22.4388784 -32.01459092 26.32092365 -40.44140625 35.23828125 Z " fill="#000000" transform="translate(423.5625,218.75)"/>
<path d="M0 0 C0.73407487 -0.00297112 1.46814974 -0.00594224 2.2244693 -0.0090034 C4.69100899 -0.01769411 7.15750016 -0.01919895 9.62405396 -0.02069092 C11.38976139 -0.02531878 13.15546783 -0.0303434 14.9211731 -0.03573608 C19.72283054 -0.04886407 24.52447401 -0.05530568 29.3261466 -0.05974674 C32.3247951 -0.06267648 35.32343976 -0.06678108 38.32208633 -0.07125092 C47.70067161 -0.08492614 57.07924815 -0.094593 66.45784271 -0.09845281 C77.29079469 -0.10293547 88.12362062 -0.12049293 98.95653427 -0.1494534 C107.32603302 -0.17105312 115.69549625 -0.18115615 124.06502259 -0.18249393 C129.06578611 -0.18354307 134.06643115 -0.18947423 139.06716537 -0.20731354 C143.77032937 -0.22376494 148.47328542 -0.22596402 153.1764679 -0.21717453 C154.90303732 -0.21640261 156.6296178 -0.22076718 158.35615921 -0.23063278 C160.71262331 -0.24330865 163.06834604 -0.2374997 165.42480469 -0.22705078 C167.4031194 -0.22925062 167.4031194 -0.22925062 169.42140007 -0.2314949 C173.87006957 0.25259834 176.37535513 1.82786251 179.65188599 4.76544189 C181.51349919 8.48866831 181.51481019 12.06610881 180.83938599 16.14044189 C179.04544931 19.01074058 177.85675322 20.63175828 174.83938599 22.14044189 C172.43265285 22.24445441 170.05445069 22.28824092 167.64717102 22.28761292 C166.52283904 22.29312795 166.52283904 22.29312795 165.37579328 22.29875439 C162.85087399 22.30981398 160.32599582 22.3136389 157.80105591 22.31744385 C155.99608732 22.32370674 154.19112004 22.33035338 152.38615417 22.33735657 C147.47287493 22.35478153 142.55960543 22.36532223 137.64630294 22.3735621 C134.57847851 22.37870868 131.51065713 22.38478454 128.44283485 22.39107323 C118.84960624 22.41012877 109.25638534 22.4243596 99.66314143 22.4326852 C88.57941205 22.44246245 77.49588212 22.46879322 66.41222304 22.50918609 C57.85166412 22.53931626 49.29116247 22.55415109 40.73055154 22.55746621 C35.6145963 22.55982008 30.49885404 22.56882434 25.38295555 22.59392738 C20.57060062 22.61715918 15.75859965 22.6214611 10.94620323 22.611166 C9.17931442 22.61066935 7.41240847 22.61702778 5.64557266 22.63072205 C3.23413894 22.64836758 0.82398565 22.64137196 -1.58744812 22.62818909 C-2.63745718 22.64464296 -2.63745718 22.64464296 -3.70867854 22.66142923 C-8.44560298 22.59886323 -10.8297517 21.47981587 -14.16061401 18.14044189 C-15.90410352 14.65346288 -15.74144127 10.94454127 -15.16061401 7.14044189 C-11.60392997 0.49397442 -7.022697 0.01584842 0 0 Z " fill="#000000" transform="translate(139.16061401367188,153.85955810546875)"/>
<path d="M0 0 C1.11358625 -0.00679667 1.11358625 -0.00679667 2.24966919 -0.01373065 C4.7384596 -0.02639564 7.22703176 -0.02475294 9.71585083 -0.02310181 C11.49978924 -0.02908574 13.28372507 -0.03589097 15.06765747 -0.04345703 C19.91479015 -0.06113774 24.76185223 -0.06581328 29.60901403 -0.0670886 C33.65477118 -0.06898717 37.70051186 -0.07634421 41.74626267 -0.08343279 C51.29114689 -0.09972213 60.83599337 -0.10460124 70.38088989 -0.10317993 C80.22843893 -0.10197825 90.07576889 -0.12308407 99.92326248 -0.15466726 C108.37688061 -0.18081426 116.83042712 -0.19154789 125.28408539 -0.19026911 C130.33352044 -0.18975903 135.38276082 -0.19546799 140.43215561 -0.21662521 C145.18135878 -0.23598109 149.93018103 -0.23615024 154.67939758 -0.22159195 C156.42167339 -0.21949947 158.16397287 -0.22423084 159.90620804 -0.23631287 C162.28655294 -0.25174989 164.66558187 -0.24246859 167.04589844 -0.22705078 C167.7338455 -0.23733791 168.42179256 -0.24762503 169.1305865 -0.25822389 C174.04824386 -0.18793082 176.8584366 1.19862243 180.64993286 4.26742554 C182.50719902 7.98195785 182.23494376 12.22321979 181.64993286 16.26742554 C179.45970369 19.09166842 177.81976079 20.68251157 174.64993286 22.26742554 C172.27072495 22.37355114 169.92022895 22.41962913 167.54037476 22.42132568 C166.79969277 22.42570794 166.05901079 22.43009019 165.29588389 22.43460524 C162.80094197 22.44801574 160.30603539 22.45417714 157.81106567 22.46029663 C156.0274235 22.46819584 154.24378292 22.47646467 152.46014404 22.4850769 C146.59113089 22.51131836 140.72211052 22.5266068 134.85305786 22.54086304 C132.83426661 22.54622187 130.81547541 22.55159938 128.79668427 22.55699539 C120.40012353 22.57862736 112.00356474 22.5973647 103.60698318 22.60861778 C91.56560757 22.62486057 79.52455447 22.65804277 67.48330045 22.71501863 C59.02124055 22.75369619 50.55926699 22.7732479 42.097121 22.77853835 C37.04088109 22.78219484 31.98498501 22.79424773 26.92884064 22.82664108 C22.1714194 22.85668317 17.41455071 22.86304735 12.6570549 22.85125732 C10.9115404 22.85103626 9.16600055 22.85936814 7.42057419 22.87691116 C5.03552539 22.89957676 2.65248462 22.89132193 0.26742554 22.87542725 C-0.42188576 22.88930933 -1.11119707 22.90319142 -1.82139659 22.91749418 C-7.33597083 22.82706362 -9.60187239 21.01647993 -13.35006714 17.26742554 C-14.94695755 14.07364472 -14.7235567 10.74221238 -14.35006714 7.26742554 C-13.13239896 4.46678873 -12.22899618 2.86195511 -9.70007133 1.15132713 C-6.47404437 -0.06207086 -3.39871182 -0.01520274 0 0 Z " fill="#000000" transform="translate(138.35006713867188,102.73257446289063)"/>
<path d="M0 0 C1.1088707 -0.00708481 2.21774139 -0.01416962 3.36021423 -0.02146912 C5.17055649 -0.01775299 5.17055649 -0.01775299 7.01747131 -0.01396179 C8.296035 -0.01907272 9.57459869 -0.02418365 10.89190674 -0.02944946 C14.39193108 -0.04281916 17.8918473 -0.04342043 21.39189219 -0.04088616 C24.31681769 -0.03981511 27.24172142 -0.04470324 30.16664225 -0.04949158 C37.06843261 -0.06057967 43.97016854 -0.06102807 50.8719635 -0.05497742 C57.98555586 -0.04893687 65.09895047 -0.06125217 72.2125091 -0.08254749 C78.32646631 -0.10017552 84.44036064 -0.10616297 90.55434233 -0.10290974 C94.20310156 -0.10109871 97.8517197 -0.10371503 101.50045586 -0.11762428 C105.57005996 -0.13255803 109.63926263 -0.12322205 113.70887756 -0.11161804 C114.91374817 -0.11926178 116.11861877 -0.12690552 117.36000061 -0.13478088 C124.14093153 -0.09199598 128.98680687 0.27844022 134.3028717 4.88569641 C136.07994648 8.63729872 136.07435614 12.19292921 135.4278717 16.26069641 C133.65629929 19.46315423 132.36026548 20.82275907 129.06091309 22.37243652 C123.68545561 23.68670816 118.4387023 23.5469027 112.92420959 23.53535461 C111.03781517 23.54302101 111.03781517 23.54302101 109.11331177 23.55084229 C105.67526041 23.56419413 102.23731924 23.56481527 98.79924703 23.56227899 C95.92407205 23.56120674 93.04891914 23.56609908 90.17374891 23.57088441 C83.3884038 23.58196626 76.60311406 23.58242437 69.81776428 23.57637024 C62.82856973 23.57032994 55.83957646 23.58264581 48.85041624 23.60394031 C42.83918226 23.6215787 36.82801222 23.62755417 30.81675333 23.62430257 C27.23113333 23.62249323 23.64565696 23.62509087 20.0600605 23.63901711 C16.06021762 23.65397208 12.06078237 23.64460585 8.06092834 23.63301086 C6.87992554 23.6406546 5.69892273 23.64829834 4.48213196 23.65617371 C-2.49561387 23.6114674 -7.9712447 23.28079233 -13.5096283 18.63569641 C-15.19347407 14.87180586 -15.22233905 11.30645224 -14.5721283 7.26069641 C-11.15444028 1.31138765 -6.5879399 0.01407286 0 0 Z " fill="#000000" transform="translate(138.57212829589844,254.7393035888672)"/>
<path d="M0 0 C1.15667679 -0.00860046 2.31335358 -0.01720093 3.50508118 -0.02606201 C5.41811539 -0.03245193 5.41811539 -0.03245193 7.36979675 -0.03897095 C8.72156994 -0.04687141 10.07334102 -0.05514032 11.42510986 -0.06375122 C15.87043746 -0.08997711 20.3157745 -0.10527906 24.76115417 -0.11953735 C26.29087009 -0.12489674 27.82058595 -0.13027424 29.35030174 -0.13566971 C35.7129335 -0.15729896 42.07556271 -0.17603613 48.43822193 -0.1872921 C57.55987949 -0.20353453 66.68111128 -0.23671837 75.80260831 -0.29369295 C82.21456341 -0.33237922 88.62640456 -0.35192318 95.03847331 -0.35721266 C98.8690309 -0.3608679 102.69913445 -0.37290642 106.52956581 -0.4053154 C110.1338448 -0.43537371 113.73739452 -0.44171654 117.34177208 -0.42993164 C119.29344376 -0.42960544 121.24507027 -0.45408607 123.19657898 -0.47930908 C132.73674077 -0.41119717 132.73674077 -0.41119717 135.81686401 2.56536865 C138.62308894 6.74666919 139.25549405 10.14822401 138.55412292 15.15390015 C136.38360899 18.71974447 134.39557746 20.61390949 130.55412292 22.15390015 C127.98596382 22.41116905 127.98596382 22.41116905 125.02632141 22.42132568 C123.90199707 22.42985565 122.77767273 22.43838562 121.61927795 22.44717407 C120.39008636 22.4462677 119.16089478 22.44536133 117.89445496 22.44442749 C116.59653015 22.45114471 115.29860535 22.45786194 113.96134949 22.46478271 C110.40342684 22.48244168 106.84560042 22.48713804 103.28763819 22.48841429 C101.06370069 22.48983652 98.8397876 22.49410747 96.61585617 22.49940872 C88.85421446 22.51790871 81.09264142 22.52607938 73.33097839 22.52450562 C66.10091173 22.52330424 58.87114362 22.54440562 51.6411525 22.57599294 C45.42955026 22.60216196 39.21804548 22.61287265 33.00638855 22.6115948 C29.29831754 22.61108534 25.59051188 22.61675922 21.88249588 22.6379509 C17.74565031 22.66094818 13.60947183 22.65180865 9.47257996 22.63973999 C8.24743683 22.650979 7.0222937 22.66221802 5.76002502 22.67379761 C-0.57200563 22.62678791 -4.70997525 22.56190642 -9.44587708 18.15390015 C-12.12493437 14.1353142 -12.14198401 10.87748293 -11.44587708 6.15390015 C-8.16883414 0.91063145 -5.96885561 0.03295307 0 0 Z " fill="#000000" transform="translate(135.4458770751953,205.84609985351563)"/>
</svg>
